<svg xmlns="http://www.w3.org/2000/svg" xmlns:xlink="http://www.w3.org/1999/xlink" width="564.042" height="421.481"><defs><radialGradient r="293.95" gradientTransform="matrix(.42858 0 0 .27558 -133.931 -126.372)" cx="528.35" cy="345.96" gradientUnits="userSpaceOnUse" xlink:href="#a" id="f"/><linearGradient id="a"><stop offset="0" stop-color="#f2f2f2"/><stop offset="1" stop-color="#e5e5e5"/></linearGradient><linearGradient x1="371.44" y1="456.04" gradientTransform="matrix(1 0 0 .90119 -6.06 57.753)" x2="643" gradientUnits="userSpaceOnUse" y2="344.83" id="c"><stop offset="0" stop-color="#d9d9d9"/><stop offset="1" stop-color="#e6e6e6" stop-opacity="0"/></linearGradient><linearGradient x1="739.61" y1="-3.353" x2="252.83" gradientUnits="userSpaceOnUse" xlink:href="#b" y2="102.34" id="h" gradientTransform="matrix(.38439 0 0 .28893 -105.96 -122.678)"/><linearGradient id="b"><stop offset="0" stop-color="#dadada"/><stop offset="1" stop-color="#dadada" stop-opacity="0"/></linearGradient><linearGradient x1="184.71" y1="313.09" gradientTransform="matrix(-.41529 0 0 .41529 124.541 -179.423)" x2="284.34" gradientUnits="userSpaceOnUse" xlink:href="#a" y2="311.07" id="i"/><linearGradient x1="309.36" y1="530.11" gradientTransform="translate(-6.06 10.102)" x2="228.63" gradientUnits="userSpaceOnUse" y2="265.45" id="d"><stop offset="0" stop-color="#737373"/><stop offset="1" stop-color="#737373" stop-opacity="0"/></linearGradient><linearGradient id="e"><stop offset="0" stop-color="#cdcdcd"/><stop offset="1" stop-color="#fdfdfd"/></linearGradient><pattern patternTransform="matrix(2.2985 0 0 2.6968 235.98 206.72)" patternUnits="userSpaceOnUse" width="10" height="10" id="r"><circle r=".15" cy=".81" cx="2.567" fill="#fff"/><circle r=".15" cy="2.33" cx="3.048" fill="#fff"/><circle r=".15" cy="2.415" cx="4.418" fill="#fff"/><circle r=".15" cy="3.029" cx="1.844" fill="#fff"/><circle r=".15" cy="1.363" cx="6.08" fill="#fff"/><circle r=".15" cy="4.413" cx="5.819" fill="#fff"/><circle r=".15" cy="4.048" cx="4.305" fill="#fff"/><circle r=".15" cy="3.045" cx="5.541" fill="#fff"/><circle r=".15" cy="5.527" cx="4.785" fill="#fff"/><circle r=".15" cy="5.184" cx="2.667" fill="#fff"/><circle r=".15" cy="1.448" cx="7.965" fill="#fff"/><circle r=".15" cy="5.049" cx="7.047" fill="#fff"/><circle r=".15" cy=".895" cx="4.34" fill="#fff"/><circle r=".15" cy=".34" cx="7.125" fill="#fff"/><circle r=".15" cy="1.049" cx="9.553" fill="#fff"/><circle r=".15" cy="2.689" cx="7.006" fill="#fff"/><circle r=".15" cy="2.689" cx="8.909" fill="#fff"/><circle r=".15" cy="4.407" cx="9.315" fill="#fff"/><circle r=".15" cy="3.87" cx="7.82" fill="#fff"/><circle r=".15" cy="5.948" cx="8.27" fill="#fff"/><circle r=".15" cy="7.428" cx="7.973" fill="#fff"/><circle r=".15" cy="8.072" cx="9.342" fill="#fff"/><circle r=".15" cy="9.315" cx="8.206" fill="#fff"/><circle r=".15" cy="9.475" cx="9.682" fill="#fff"/><circle r=".15" cy="6.186" cx="9.688" fill="#fff"/><circle r=".15" cy="6.296" cx="3.379" fill="#fff"/><circle r=".15" cy="8.204" cx="2.871" fill="#fff"/><circle r=".15" cy="8.719" cx="4.59" fill="#fff"/><circle r=".15" cy="9.671" cx="3.181" fill="#fff"/><circle r=".15" cy="7.315" cx="5.734" fill="#fff"/><circle r=".15" cy="6.513" cx="6.707" fill="#fff"/><circle r=".15" cy="9.67" cx="5.73" fill="#fff"/><circle r=".15" cy="8.373" cx="6.535" fill="#fff"/><circle r=".15" cy="7.154" cx="4.37" fill="#fff"/><circle r=".15" cy="7.25" cx=".622" fill="#fff"/><circle r=".15" cy="5.679" cx=".831" fill="#fff"/><circle r=".15" cy="8.519" cx="1.257" fill="#fff"/><circle r=".15" cy="6.877" cx="1.989" fill="#fff"/><circle r=".15" cy="3.181" cx=".374" fill="#fff"/><circle r=".15" cy="1.664" cx="1.166" fill="#fff"/><circle r=".15" cy=".093" cx="1.151" fill="#fff"/><circle r=".15" cy="10.093" cx="1.151" fill="#fff"/><circle r=".15" cy="4.451" cx="1.302" fill="#fff"/><circle r=".15" cy="3.763" cx="3.047" fill="#fff"/></pattern><radialGradient xlink:href="#a" id="k" gradientUnits="userSpaceOnUse" gradientTransform="matrix(.42858 0 0 .27558 -598.952 -126.372)" cx="528.35" cy="345.96" r="293.95"/><linearGradient xlink:href="#c" id="l" gradientUnits="userSpaceOnUse" gradientTransform="matrix(.41529 0 0 .37426 -589.562 -159.634)" x1="371.44" y1="456.04" x2="643" y2="344.83"/><linearGradient xlink:href="#b" id="m" gradientUnits="userSpaceOnUse" x1="739.61" y1="-3.353" x2="252.83" y2="102.34" gradientTransform="matrix(.38439 0 0 .28893 -570.98 -122.678)"/><linearGradient xlink:href="#a" id="n" gradientUnits="userSpaceOnUse" gradientTransform="translate(-589.562 -179.423) scale(.41529)" x1="184.71" y1="313.09" x2="284.34" y2="311.07"/><linearGradient xlink:href="#d" id="o" gradientUnits="userSpaceOnUse" gradientTransform="translate(-589.562 -179.423) scale(.41529)" x1="309.36" y1="530.11" x2="228.63" y2="265.45"/><radialGradient xlink:href="#b" id="p" gradientUnits="userSpaceOnUse" gradientTransform="matrix(-.41163 -.05307 .02846 -.22078 736.01 668.92)" cx="927.84" cy="462.48" r="269.19"/><linearGradient xlink:href="#e" id="q" gradientUnits="userSpaceOnUse" x1="229.49" y1="252.3" x2="145.59" y2="117.79"/><linearGradient xlink:href="#e" id="s" gradientUnits="userSpaceOnUse" x1="356.08" y1="536.95" x2="344.77" y2="468.77"/><linearGradient xlink:href="#e" id="t" gradientUnits="userSpaceOnUse" x1="434.3" y1="538.28" x2="400.6" y2="496.35"/><linearGradient xlink:href="#c" id="g" gradientUnits="userSpaceOnUse" gradientTransform="matrix(-.41529 0 0 .37426 124.541 -159.634)" x1="371.44" y1="456.04" x2="643" y2="344.83"/><linearGradient xlink:href="#d" id="j" gradientUnits="userSpaceOnUse" gradientTransform="matrix(-.41529 0 0 .41529 124.541 -179.423)" x1="309.36" y1="530.11" x2="228.63" y2="265.45"/><clipPath id="u"><rect width="171.596" height="114.014" x="-307.944" y="-179.489" ry="11.392" fill="#c83737" stroke-width="3"/></clipPath></defs><g transform="translate(514.532 349.797)"><path d="M-547.541-301.89c-2.97 2.455-3.368 6.921-.882 9.926l125.035 151.202c2.486 3.007 6.948 3.456 9.918 1l8.624-7.131c2.97-2.456 3.367-6.924.881-9.93L-529-308.027c-2.485-3.005-6.948-3.452-9.918-.996z" fill="#333"/><path d="M-412.1-484.555c26.408-18.518 54.904-28.027 76.84-33.039 21.957-4.989 37.41-5.45 37.903-5.471 5.775-.163 10.642 4.392 10.872 10.18.233 5.787-4.256 10.613-10.027 10.78v.001c-.387.01-13.064.469-31.15 4.357l17.411 24.707 48.642-34.637c3.14-2.237 7.74-1.61 10.226 1.396l94.267 113.995c2.486 3.006 2.24 7.646-.547 10.308l-98.645 94.34 57.34-16.6c3.712-1.077 8.78.503 11.263 3.507l15.344 18.555c2.483 3.003 1.556 6.559-2.06 7.905l-156.63 58.118-58.482 55.927c-2.781 2.663-7.096 2.383-9.582-.624L-524.15-312.05c-2.485-3.006-1.948-7.294 1.19-9.526l87.871-62.58-18.765-26.634a170.61 170.61 0 0 0-2.684 4.496c-4.136 7.176-6.904 13.203-8.617 17.36a95.068 95.068 0 0 0-1.814 4.744c-.181.523-.307.912-.383 1.147-.035.116-.062.194-.075.238h-.001c-1.621 5.542-7.432 8.662-12.977 6.971a10.544 10.544 0 0 1-5.082-3.383c-2.167-2.62-3.042-6.223-2.025-9.703.37-1.2 13.43-45.258 61.186-84.801 4.432-3.669 9.169-7.29 14.217-10.838zm-31.147 58.437c.043.061.09.11.133.17l22.294 31.641 96.307-68.579-21.27-30.186c-17.109 5.17-36.42 13.254-54.182 25.739a206.473 206.473 0 0 0-12.928 9.855c-12.676 10.482-22.624 21.307-30.354 31.36z" fill="#660080"/><path d="M-245.338-519.823s8.932-6.27 9.73-6.93c6.998-5.787 30.037 10.176 54.371 36.74l7.381-10.824c2.162-3.197 5.968-3.352 8.452-.348l19.405 23.465c2.485 3.006 1.622 6.72-1.916 8.255l-12.018 5.217c21.524 28.89 32.877 54.517 25.88 60.304-.799.66-8.634 8.256-8.634 8.256-2.787 2.663-7.099 2.385-9.585-.622l-94.274-114.004c-2.483-3.003-1.946-7.29 1.194-9.526z" fill="#333"/><ellipse ry="84.658" rx="131.964" cy="-12.975" cx="90.751" transform="scale(-1 1)" fill="#cdcdcd" fill-rule="evenodd"/><ellipse ry="84.289" rx="131.086" cy="-15.536" cx="91.625" transform="scale(-1 1)" fill="#fff" fill-rule="evenodd"/><ellipse ry="81.007" rx="125.983" cy="-15.536" cx="91.625" transform="scale(-1 1)" fill="url(#f)" fill-rule="evenodd"/><path d="M41.097-5.11C43.065 8.582-.703-.764-.174 11.367c1.376 31.7-63.104 58.36-119.816 42.085-15.634-4.486-38.53-12.584-50.885-27.355-10.243-12.244-20.491-30.58-14.871-45.524 9.08-24.142 36.896-36.7 66.546-39.487 30.136-2.834 69.328 12.105 102.186 24.17C3.397-27.25 39.004-19.66 41.097-5.114z" opacity=".2" fill="#737373" fill-rule="evenodd"/><path d="M-201.819-101.581c0 32.65 215.614 32.65 215.614 0 0 163.25-215.614 163.25-215.614 0z" fill="#f5f5f5" fill-rule="evenodd"/><path d="M-201.819-101.581c0 32.65 215.614 32.65 215.614 0 0 163.25-215.614 163.25-215.614 0z" fill="url(#g)" fill-rule="evenodd"/><ellipse ry="54.269" rx="107.806" cy="-99.484" cx="94.01" transform="scale(-1 1)" fill="#e6e6e6" fill-rule="evenodd"/><ellipse ry="53.849" rx="107.806" cy="-99.904" cx="94.01" transform="scale(-1 1)" fill="#fff" fill-rule="evenodd"/><ellipse ry="50.493" rx="104.45" cy="-100.743" cx="94.01" transform="scale(-1 1)" fill="url(#h)" fill-rule="evenodd"/><path d="M-96.12-123.982c47.93 0 87.963 18.728 97.619 43.709-16.245 17.689-52.887 30.018-95.505 30.018-45.22 0-83.722-13.891-98.253-33.327 11.778-23.307 50.354-40.4 96.14-40.4z" fill="#28170b" fill-rule="evenodd"/><path d="M-96.875-104.684c41.01 0 75.441 14.932 85.055 35.105-19.12 11.77-48.825 19.324-82.19 19.324-35.928 0-67.613-8.775-86.405-22.127 11.348-18.736 44.457-32.302 83.54-32.302z" fill="#502d16" fill-rule="evenodd"/><path d="M26.171-88.786c6.344.027 13.065 2.217 17.157 6.956 16.01 18.541-2.742 41.455-14.834 52.858-9.75 9.194-31.18 24.524-43.008 13.367 3.655-4.3 7.027-8.98 10.084-14.042 5.346-.703 10.74-1.556 13.406-4.14 9.107-8.826 27.386-17.885 19.506-34.183-2.658-5.496-12.973-2.954-16.923-5.983.59-3.485 1.053-7.067 1.414-10.745 3.045-2.679 7.994-4.11 13.199-4.088z" fill="url(#i)" fill-rule="evenodd"/><path d="M18.41-82.723c5.69.019 12.275 2.816 11.744 7.215-.745 6.176-14.328 6.082-18.597 1.558.413-2.437.763-4.918 1.064-7.45 1.476-.91 3.561-1.33 5.789-1.323zm21.841 11.9c.244.018.506.067.792.156 13.86 4.31-2.49 31.235-12.55 41.7C19.01-19.105-8.302-3.412-14.519-15.6c-2.952-5.79 12.966-2.057 18.48-5.327 12.726-7.548 24.057-20.64 31.241-31.53 3.346-5.071.09-18.733 5.049-18.364z" opacity=".2" fill="url(#j)" fill-rule="evenodd"/><path d="M-152.653-43.703c-3.997-6.6-11.956-14.672-14.385-4.138 12.669 55.433 44.876 53.327 54.523 62.654-8.232-10.397-36.423-21.227-40.137-58.518zM31.753-83.529c2.365-.016 4.064-4.12-2.263-4.16-21.41-.137-13.874 10.953-15.75 13.414 2.863-1.978-.177-9.127 18.012-9.254zM-28.44-87.952c0 13.762 12.854 6.635 12.854 2.284 0-13.733-56.858-26.78-56.858-28.993 0 6.564 44.004 12.947 44.004 26.71zM-137.96-94.908c0-4.886-37.544.568-37.544 5.523 0 13.185 68.535 28.94 68.535 33.982 0-5.903-70.52-39.505-30.989-39.505z" opacity=".7" fill="#fff"/><ellipse cx="-374.27" cy="-12.975" rx="131.964" ry="84.658" fill="#cdcdcd" fill-rule="evenodd"/><ellipse cx="-373.396" cy="-15.536" rx="131.086" ry="84.289" fill="#fff" fill-rule="evenodd"/><ellipse cx="-373.396" cy="-15.536" rx="125.983" ry="81.007" fill="url(#k)" fill-rule="evenodd"/><path d="M-506.118-5.11c-1.968 13.692 41.8 4.346 41.272 16.477-1.377 31.7 63.103 58.36 119.815 42.085 15.634-4.486 38.53-12.584 50.885-27.355 10.243-12.244 20.491-30.58 14.872-45.524-9.08-24.142-36.897-36.7-66.547-39.487-30.136-2.834-69.328 12.105-102.186 24.17-20.41 7.494-56.018 15.085-58.111 29.631z" opacity=".2" fill="#737373" fill-rule="evenodd"/><path d="M-263.202-101.581c0 32.65-215.614 32.65-215.614 0 0 163.25 215.614 163.25 215.614 0z" fill="#f5f5f5" fill-rule="evenodd"/><path d="M-263.202-101.581c0 32.65-215.614 32.65-215.614 0 0 163.25 215.614 163.25 215.614 0z" fill="url(#l)" fill-rule="evenodd"/><ellipse cx="-371.011" cy="-99.484" rx="107.806" ry="54.269" fill="#e6e6e6" fill-rule="evenodd"/><ellipse cx="-371.011" cy="-99.904" rx="107.806" ry="53.849" fill="#fff" fill-rule="evenodd"/><ellipse cx="-371.011" cy="-100.743" rx="104.45" ry="50.493" fill="url(#m)" fill-rule="evenodd"/><path d="M-368.902-123.982c-47.928 0-87.962 18.728-97.618 43.709 16.245 17.689 52.888 30.018 95.505 30.018 45.22 0 83.722-13.891 98.253-33.327-11.778-23.307-50.354-40.4-96.14-40.4z" fill="#28170b" fill-rule="evenodd"/><path d="M-368.146-104.684c-41.01 0-75.441 14.932-85.055 35.105 19.12 11.77 48.825 19.324 82.19 19.324 35.928 0 67.613-8.775 86.405-22.127-11.348-18.736-44.457-32.302-83.54-32.302z" fill="#502d16" fill-rule="evenodd"/><path d="M-491.192-88.786c-6.344.027-13.065 2.217-17.156 6.956-16.01 18.541 2.74 41.455 14.833 52.858 9.75 9.194 31.18 24.524 43.008 13.367-3.654-4.3-7.027-8.98-10.084-14.042-5.346-.703-10.74-1.556-13.406-4.14-9.107-8.826-27.386-17.885-19.506-34.183 2.658-5.496 12.974-2.954 16.923-5.983a154.942 154.942 0 0 1-1.414-10.745c-3.045-2.679-7.994-4.11-13.198-4.088z" fill="url(#n)" fill-rule="evenodd"/><path d="M-483.43-82.723c-5.69.019-12.276 2.816-11.745 7.215.745 6.176 14.328 6.082 18.597 1.558a152.816 152.816 0 0 1-1.064-7.45c-1.476-.91-3.561-1.33-5.788-1.323zm-21.842 11.9a3.545 3.545 0 0 0-.792.156c-13.86 4.31 2.49 31.235 12.55 41.7 9.484 9.863 36.795 25.556 43.012 13.367 2.952-5.79-12.966-2.057-18.48-5.327-12.726-7.548-24.056-20.64-31.241-31.53-3.346-5.071-.09-18.733-5.049-18.364z" opacity=".2" fill="url(#o)" fill-rule="evenodd"/><g fill-rule="evenodd"><path d="M-253.51 35.374c-15.648 11.272-85.306-2.676-117.003-1.116-19.7.97-23.497 10.927-24.066 11.6-7.525 8.915-25.158 14.397-42.217 12.994-21.936-1.804-38.81-14.312-37.69-27.936 1.121-13.623 19.813-23.205 41.749-21.4 16.487 1.356 32.486 8.758 38.94 18.137 1.677 2.437 9.223-7.808 139.04-.754 7.758.422 1.245 8.475 1.245 8.475z" fill="#a7a7a7"/><path d="M803.14 523.29c-37.678 27.142-205.41-6.444-281.74-2.688-47.437 2.334-56.581 26.312-57.95 27.934C445.329 570 402.87 583.2 361.79 579.822c-52.821-4.345-93.454-34.461-90.755-67.266 2.698-32.805 47.706-55.876 100.53-51.531 39.702 3.265 78.225 21.09 93.766 43.674 4.038 5.867 22.209-18.8 334.81-1.815 18.679 1.015 2.998 20.406 2.998 20.406z" fill="url(#p)" transform="translate(-587.045 -183.618) scale(.41529)"/><path d="M-438.811 8.454c-18.552.232-33.592 8.656-35.52 20.349 3.836-11.644 21.086-19.392 41.01-17.754 16.487 1.357 32.479 8.752 38.933 18.13 1.677 2.437 9.225-7.806 139.043-.753 2.909.159 3.81 1.391 3.802 2.869.999-2.293 1.21-5.003-3.205-5.243-129.82-7.055-137.366 3.189-139.043.752-6.454-9.378-22.459-16.773-38.947-18.13a64.338 64.338 0 0 0-6.073-.22z" fill="#e6e6e6"/><path d="M-252.708 27.374c.202 2.45-1.285 4.312-1.285 4.312-15.731 11.058-85.766-2.624-117.635-1.095-19.806.951-23.618 10.722-24.19 11.382-7.565 8.745-25.292 14.12-42.442 12.744-16.608-1.333-30.336-8.61-35.619-17.836 4.531 9.986 18.88 18.055 36.454 19.466 17.15 1.376 34.877-4 42.442-12.744.572-.661 4.384-10.431 24.19-11.382 31.865-1.53 101.904 12.153 117.635 1.095 0 0 3.085-3.781.45-5.942z" fill="#9a9a9a"/></g><path d="M-438.811 8.454c-18.552.232-38.466 13.22-30.702 23.51 2.653 3.517 1.87-3.737 10.607-7.884 11.822-5.61 28.571-4.09 31.517.021 22.98 32.077 4.493-8.232 129.213 4.566 5.13.526-22.651 7.276 34.65 7.1 8.732-.026 11.99-5.95 11.983-4.472.998-2.293 1.209-5.003-3.206-5.243-129.811-7.056-136.398 3.858-138.62 1.902-23.812-23.377-28.044-18.518-45.437-19.502z" opacity=".3" fill="#fff" fill-rule="evenodd"/><path d="M-257.575 40.9c-5.591-.384-11.312 1.897-18.62 2.25 0 0 3.089-4.756 2.523-4.729-28.048 1.36-76.987-8.23-101.759-6.914-19.843 1.053-24.71 10.408-25.283 11.14-7.58 9.688-19.887 15.014-37.07 13.49-16.638-1.478-37.105-31.565-35.685-15.565 4.54 11.063 18.916 20.002 36.523 21.565 17.181 1.525 36.41-2.543 43.991-12.23.573-.733 9.846-14.283 26.543-12.4 22.635 2.554 61.118 8.835 87.074 7.805.492-.02-5.521 4.154-5.038 4.129 9.794-.504 19.963-2.33 27.637-4.218.992-.618 4.044-3.724-.837-4.323z" opacity=".3" fill="#9a9a9a" fill-rule="evenodd"/><path d="M-312.368-43.703c3.997-6.6 11.956-14.672 14.386-4.138-12.67 55.433-44.877 53.327-54.524 62.654 8.232-10.397 36.423-21.227 40.137-58.518zM-496.773-83.529c-2.366-.016-4.065-4.12 2.262-4.16 21.41-.137 13.874 10.953 15.75 13.414-2.863-1.978.177-9.127-18.012-9.254zM-436.581-87.952c0 13.762-12.854 6.635-12.854 2.284 0-13.733 56.858-26.78 56.858-28.993 0 6.564-44.004 12.947-44.004 26.71zM-327.061-94.908c0-4.886 37.544.568 37.544 5.523 0 13.185-68.535 28.94-68.535 33.982 0-5.903 70.52-39.505 30.989-39.505z" opacity=".7" fill="#fff"/><g fill-rule="evenodd"><path d="M317.188 287.04c-8.89 8.284-106.782 30.846-118.4 27.289-11.618-3.557-80.104-77.054-82.833-88.894-2.729-11.84 26.679-107.898 35.568-116.181 8.89-8.284 106.782-30.845 118.4-27.289 11.618 3.557 80.104 77.054 82.833 88.894 2.728 11.84-26.679 107.898-35.568 116.182z" transform="scale(.1825) rotate(2.268 977.744 -67266.863)" fill="url(#q)"/><path transform="scale(.1825) rotate(2.268 977.744 -67266.863)" d="M317.188 287.04c-8.89 8.284-106.782 30.846-118.4 27.289-11.618-3.557-80.104-77.054-82.833-88.894-2.729-11.84 26.679-107.898 35.568-116.181 8.89-8.284 106.782-30.845 118.4-27.289 11.618 3.557 80.104 77.054 82.833 88.894 2.728 11.84-26.679 107.898-35.568 116.182z" fill="url(#r)"/><path d="M387.61 460.33c-.232.015-.4.053-.563.094-5.18 1.296-36.939 31.99-38.406 37.125-1.467 5.134 9.257 47.975 12.97 51.812 3.419 3.534 41.57 14.46 51.332 15.098l-9.088-48.5 35.365-38.89-1.198-3.625c-6.79-4.237-43.58-13.554-50.41-13.115z" fill="url(#s)" transform="translate(-587.045 -183.618) scale(.41529)"/><path d="M438.16 474.76l.188.594-36.375 40.406 9.718 48.625c.839.054 1.497.04 1.907-.063 5.18-1.296 36.908-31.99 38.375-37.125 1.467-5.134-9.257-47.943-12.97-51.78a4.583 4.583 0 0 0-.843-.657z" fill="url(#t)" transform="translate(-587.045 -183.618) scale(.41529)"/><path transform="matrix(.15632 -.0942 .0942 .15632 -476.233 20.003)" d="M317.188 287.04c-8.89 8.284-106.782 30.846-118.4 27.289-11.618-3.557-80.104-77.054-82.833-88.894-2.729-11.84 26.679-107.898 35.568-116.181 8.89-8.284 106.782-30.845 118.4-27.289 11.618 3.557 80.104 77.054 82.833 88.894 2.728 11.84-26.679 107.898-35.568 116.182z" fill="url(#r)"/></g><path d="M-178.11-144.177c-.613 1.273-.74 2.717-1.579 3.868-.099-.018-.27-.077-.359-.107.067-1.331.378-2.683.18-4.031-.24-.79-.458-1.86-1.48-1.939-1.933-.5-3.82.53-5.46 1.412-1.986 1.042-3.687 2.489-5.495 3.76-1.802 1.492-6.132 2.524-24.436 25.98-6.774 8.637-12.61 17.913-13.124 18.161-4.449 9.041-19.297 12.82-21.53 15.152-.502.281.442 1.167.335 1.376 1.487 1.095 13.198 8.06 14.413 6.808-.361 1.926-1.322 3.644-1.83 5.53-.902 3.063-3.922 19.413-5.993 27.518-.847 2.814-2.3 5.399-3.628 8.006-1.34 2.486-3.17 4.67-5.043 6.756-2.356 2.512-24.48 21.099-23.749 21.678 6.62 3.334 12.89 2.125 20.038 2.635.896.355 1.902.428 2.718.998 3.81 3.723 5.007 11.012 9.021 14.725.91.448 1.508 1.257 2.153 2.008.63-1.05 1.252-2.101 1.79-3.207.945-2.52 4.61-18.246 5.213-20.645.594-2.343.71-4.763 1.268-7.093.325-1.32.261-2.69.672-3.969.9-2.495 1.828-5.007 3.276-7.252 1.017-1.56 2.022-3.115 3.21-4.558.901-1.088 7.298-9.283 11.96-13.764 2.123-3.433 14.643-14.15 15.572-15.291 2.325 3.842 4.312 4.574 8.076 7.197 1.244 1.084 2.848 1.988 4.536 1.6.66-.23 1.06-.952.984-1.633-4.02-11.352-2.782-21.13-3.708-22.051 2.835-4.192 4.69-8.926 7.022-13.392 12.44-24.779 8.168-48.62 8.112-50.638.01-1.66-.012-3.448-.905-4.909-.247-.927-1.525-1.308-2.231-.686zm-8.46 14.513a2.957 2.957 0 0 1-3.984 1.272 2.957 2.957 0 0 1-1.277-3.983 2.96 2.96 0 1 1 5.26 2.71z" clip-path="url(#u)" transform="matrix(1.81874 0 0 1.81874 18.697 40.678)" fill="green"/><path transform="matrix(-1.81874 0 0 1.81874 -483.716 40.678)" clip-path="url(#u)" d="M-178.11-144.177c-.613 1.273-.74 2.717-1.579 3.868-.099-.018-.27-.077-.359-.107.067-1.331.378-2.683.18-4.031-.24-.79-.458-1.86-1.48-1.939-1.933-.5-3.82.53-5.46 1.412-1.986 1.042-3.687 2.489-5.495 3.76-1.802 1.492-6.132 2.524-24.436 25.98-6.774 8.637-12.61 17.913-13.124 18.161-4.449 9.041-19.297 12.82-21.53 15.152-.502.281.442 1.167.335 1.376 1.487 1.095 13.198 8.06 14.413 6.808-.361 1.926-1.322 3.644-1.83 5.53-.902 3.063-3.922 19.413-5.993 27.518-.847 2.814-2.3 5.399-3.628 8.006-1.34 2.486-3.17 4.67-5.043 6.756-2.356 2.512-24.48 21.099-23.749 21.678 6.62 3.334 12.89 2.125 20.038 2.635.896.355 1.902.428 2.718.998 3.81 3.723 5.007 11.012 9.021 14.725.91.448 1.508 1.257 2.153 2.008.63-1.05 1.252-2.101 1.79-3.207.945-2.52 4.61-18.246 5.213-20.645.594-2.343.71-4.763 1.268-7.093.325-1.32.261-2.69.672-3.969.9-2.495 1.828-5.007 3.276-7.252 1.017-1.56 2.022-3.115 3.21-4.558.901-1.088 7.298-9.283 11.96-13.764 2.123-3.433 14.643-14.15 15.572-15.291 2.325 3.842 4.312 4.574 8.076 7.197 1.244 1.084 2.848 1.988 4.536 1.6.66-.23 1.06-.952.984-1.633-4.02-11.352-2.782-21.13-3.708-22.051 2.835-4.192 4.69-8.926 7.022-13.392 12.44-24.779 8.168-48.62 8.112-50.638.01-1.66-.012-3.448-.905-4.909-.247-.927-1.525-1.308-2.231-.686zm-8.46 14.513a2.957 2.957 0 0 1-3.984 1.272 2.957 2.957 0 0 1-1.277-3.983 2.96 2.96 0 1 1 5.26 2.71z" fill="#f55"/></g></svg>