<svg xmlns="http://www.w3.org/2000/svg" width="285.64" height="417.033"><g transform="translate(-122.705 44.542)"><g fill="#803300"><path d="M226.24-34.252h182.105V79.563H226.24z"/><path d="M310.683-40.86c4.406-5.134 8.812-4.68 13.218 0v273.156c-4.046 2.88-8.417 3.159-13.218 0z"/></g><path d="M159.787 367.782c0 2.59 2.143 4.709 4.764 4.709h131.87c2.622 0 4.766-2.12 4.766-4.71v-7.52c0-2.59-2.144-4.71-4.766-4.71H164.55c-2.621 0-4.764 2.12-4.764 4.71z" fill="#333"/><path d="M123.187 219.392c1.72-21.61 9-40.442 15.8-53.951 6.82-13.51 13.2-21.711 13.4-21.975 2.389-3.061 6.833-3.631 9.93-1.271a6.942 6.942 0 0 1 1.289 9.81v.002c-.161.204-5.353 6.967-11.085 18l20.254 1.564 2.894-40.03c.186-2.584 2.482-4.698 5.103-4.698h99.42c2.622 0 4.92 2.114 5.105 4.698l6.612 91.5 15.962-36.81c1.032-2.382 4.02-4.33 6.64-4.33h16.183c2.619 0 4.064 2.003 3.212 4.453l-36.985 106.02 3.919 54.245c.188 2.58-1.805 4.696-4.427 4.696h-131.87c-2.621 0-4.612-2.115-4.424-4.696l5.223-72.318-21.832-1.688c.39 1.154.785 2.26 1.179 3.316 1.945 5.216 3.88 9.23 5.3 11.899a63.894 63.894 0 0 0 1.68 2.97c.194.319.342.55.43.69.046.069.075.116.092.142 2.176 3.214 1.303 7.56-1.948 9.708a7.086 7.086 0 0 1-3.93 1.183 7.1 7.1 0 0 1-5.892-3.107c-.463-.706-17.69-26.341-17.716-68.013-.002-3.867.15-7.872.476-12.006zm16.927 41.162c.05.004.096 0 .145.004l25.938 2.005 5.729-79.256-24.746-1.912c-4.65 11.076-8.734 24.54-9.875 39.088a138.773 138.773 0 0 0-.433 10.917c0 11.055 1.346 20.844 3.242 29.154z" fill="#660080"/><path d="M176.347 117.91s.578-7.311.578-8.007c0-6.103 18.136-11.2 42.318-12.425l-2.445-8.46c-.73-2.488.82-4.526 3.44-4.526h20.465c2.62 0 4.176 2.038 3.455 4.528l-2.445 8.459c24.183 1.226 42.319 6.322 42.319 12.425 0 .696.578 8.008.578 8.008.186 2.584-1.805 4.698-4.427 4.698h-99.428c-2.62-.001-4.61-2.115-4.423-4.7z" fill="#333"/><rect width="174.547" height="104.857" x="229.726" y="-29.366" ry="0" fill="#fff"/><path d="M375.738-17.43c-.916.658-1.556 1.622-2.584 2.108-.062-.05-.16-.157-.21-.212.554-.908 1.288-1.736 1.665-2.757.133-.646.389-1.479-.298-1.924-1.164-1.088-2.88-1.086-4.365-1.094-1.79-.029-3.535.336-5.288.537-1.832.357-5.261-.573-27.045 8.88-8.045 3.468-15.677 7.741-16.131 7.719-6.57 4.638-18.42 1.618-20.875 2.4-.46.005-.136.987-.291 1.092.624 1.335 6.173 10.688 7.503 10.274-.988 1.213-2.318 2.05-3.394 3.177-1.801 1.803-10.16 12.11-14.705 17-1.669 1.65-3.673 2.906-5.6 4.226-1.889 1.23-4.004 2.063-6.113 2.81-2.611.861-25.213 5.442-24.922 6.128 3.367 4.863 8.224 6.41 13.038 9.496.493.59 1.17 1.026 1.524 1.737 1.25 4.064-.694 9.63.701 13.765.467.661.578 1.456.743 2.229.842-.495 1.68-.994 2.478-1.564 1.625-1.405 10.198-11.029 11.536-12.48 1.311-1.416 2.317-3.067 3.596-4.488.732-.8 1.21-1.785 1.987-2.524 1.584-1.406 3.193-2.812 5.065-3.833 1.308-.705 2.606-1.412 3.99-1.969 1.047-.419 8.659-3.72 13.637-5.081 2.798-1.595 15.665-4.327 16.752-4.773.163 3.58 1.276 4.853 2.913 8.128.458 1.235 1.237 2.48 2.568 2.854.55.09 1.106-.264 1.313-.77 1.517-9.491 6.117-15.871 5.82-16.87 3.587-1.857 6.694-4.466 10.034-6.707 18.179-12.617 24.286-30.958 25.018-32.394.64-1.16 1.307-2.421 1.24-3.786.18-.744-.57-1.5-1.303-1.333zm-11.47 6.942a2.36 2.36 0 0 1-3.279-.63 2.36 2.36 0 1 1 3.907-2.651 2.36 2.36 0 0 1-.629 3.28z" fill="red"/></g></svg>