<svg xmlns="http://www.w3.org/2000/svg" width="907.1" height="815.512"><defs><filter x="-1.075" y="-1.075" width="3.151" height="3.151" id="a"><feGaussianBlur stdDeviation="19.682"/></filter></defs><g transform="translate(-61.24 -79.665)"><path d="M420.85 559.53C298.33 390.66 157.74 537.71 151 744c30.426 22.479 61.762 30.002 82.034-14.203 47.661 37.78 224.08 28.374 281.35-4.09 10.558 14.624 20.058 62.775 85.186 15.436-5.06-203.42-124.44-386.98-178.72-181.61z" fill="#ff6b31" stroke="#000" stroke-width="9" stroke-linecap="round" stroke-linejoin="round"/><circle transform="matrix(2.4218 0 0 2.2949 -429.68 -803.54)" cx="296.032" cy="606.997" r="21.961" fill="#fff" filter="url(#a)"/><circle transform="matrix(.99993 0 0 1.052 -59.97 9.054)" cx="440" cy="286.648" r="185.714" fill="#ffc6b1" fill-rule="evenodd" stroke="#000" stroke-width="8.775"/><path d="M178.89 316.93c196.29 19.534 35.994-64.722 139.14-139.14 78.948 23.875 131.94-36.662 216.16 24.846l37.269-52.176c-243.4-155.96-401.3-10.08-392.57 166.47z" stroke="#000" stroke-width="9"/></g><path d="M57.249 808.242c0 3.999 3.308 7.27 7.354 7.27H268.19c4.048 0 7.358-3.271 7.358-7.27v-11.61c0-4-3.31-7.272-7.358-7.272H64.603c-4.046 0-7.354 3.273-7.354 7.271z" fill="#333"/><path d="M.744 579.152C3.4 545.79 14.64 516.716 25.137 495.861c10.529-20.856 20.378-33.519 20.687-33.926 3.688-4.726 10.55-5.606 15.33-1.962 4.782 3.64 5.673 10.42 1.99 15.146v.002c-.248.315-8.264 10.756-17.113 27.79l31.269 2.414 4.468-61.8c.287-3.99 3.832-7.253 7.878-7.253h153.488c4.048 0 7.596 3.264 7.882 7.253l10.208 141.263 24.642-56.829c1.594-3.679 6.208-6.686 10.253-6.686h24.982c4.044 0 6.275 3.092 4.96 6.874l-57.1 163.678 6.05 83.746c.29 3.984-2.786 7.25-6.834 7.25H64.591c-4.046 0-7.12-3.266-6.83-7.25l8.064-111.648-33.705-2.606a177.01 177.01 0 0 0 1.82 5.12c3.003 8.052 5.991 14.25 8.184 18.37a98.648 98.648 0 0 0 2.593 4.587c.298.49.527.849.664 1.065.07.105.114.177.14.217v.002c3.36 4.96 2.012 11.67-3.007 14.987a10.94 10.94 0 0 1-6.066 1.826c-3.527 0-6.987-1.683-9.097-4.797-.715-1.09-27.31-40.666-27.351-105-.003-5.97.233-12.154.735-18.536zM26.877 642.7c.077.006.148 0 .224.006l40.044 3.095 8.844-122.358-38.204-2.952c-7.177 17.1-13.483 37.887-15.245 60.345a214.243 214.243 0 0 0-.668 16.854c0 17.068 2.078 32.18 5.005 45.01z" fill="#660080"/><path d="M82.815 422.482s.892-11.289.892-12.363c0-9.422 27.999-17.29 65.332-19.182l-3.775-13.06c-1.127-3.842 1.266-6.989 5.311-6.989h31.595c4.046 0 6.447 3.147 5.334 6.991l-3.775 13.06c37.335 1.892 65.334 9.76 65.334 19.181 0 1.075.892 12.364.892 12.364.287 3.989-2.786 7.252-6.834 7.252H89.62c-4.043-.002-7.117-3.265-6.829-7.254z" fill="#333"/><g fill="#0a0"><path d="M297.911 495.53c9.336-10.536 13.603-20.059 13.606-29.058-.014-9.54-4.745-16.962-9.555-22.985-4.886-6.047-10.12-11.248-13.099-16.147-2.009-3.272-3.041-6.16-3.046-9.304-.022-4.646 2.394-11.29 11.869-20.998a6.468 6.468 0 0 0-.2-9.272c-2.67-2.506-6.905-2.421-9.466.193-10.671 10.895-15.57 20.664-15.591 30.077.03 9.35 4.809 16.562 9.586 22.478 4.86 5.952 10.053 11.147 13.036 16.169 2.01 3.353 3.073 6.39 3.083 9.79 0 4.742-2.188 11.22-10.34 20.481-2.42 2.737-2.111 6.88.675 9.25a6.756 6.756 0 0 0 4.379 1.596c1.875-.002 3.745-.768 5.063-2.27z"/><path d="M329.16 495.53c9.334-10.536 13.601-20.059 13.606-29.058-.012-9.54-4.744-16.962-9.555-22.985-4.888-6.047-10.12-11.248-13.096-16.147-2.013-3.272-3.045-6.16-3.048-9.304-.023-4.646 2.393-11.29 11.868-20.998a6.468 6.468 0 0 0-.202-9.272c-2.668-2.506-6.903-2.421-9.466.193-10.666 10.895-15.568 20.664-15.59 30.077.033 9.35 4.811 16.562 9.586 22.478 4.862 5.952 10.055 11.147 13.037 16.169 2.011 3.353 3.073 6.39 3.086 9.79 0 4.742-2.191 11.22-10.344 20.481a6.474 6.474 0 0 0 .676 9.25 6.752 6.752 0 0 0 4.377 1.596c1.877-.002 3.744-.768 5.065-2.27z"/></g><path d="M521.81 127.857c0 33.004 35.28 73.678 69.389 95.306 2.253 13.28 10.632 36.62-37.02 102.165 29.452-3.572 97.53-67.17 103.325-82.23 12.27 1.593 39.773 4.279 52.785 4.279 104.092 0 188.478-53.513 188.478-119.522 0-66.011-84.384-119.522-188.478-119.522-104.093 0-188.479 53.513-188.479 119.522z" fill="#fff" stroke="#0a0" stroke-width="16.667"/><path d="M825.67 65.124c-1.8 1.233-3.081 3.068-5.09 3.964-.119-.101-.301-.312-.398-.42 1.113-1.731 2.569-3.301 3.342-5.258.286-1.243.818-2.843-.491-3.733-2.203-2.156-5.52-2.229-8.393-2.31-3.461-.133-6.851.495-10.249.806-3.56.61-10.15-1.34-52.693 15.981-15.711 6.35-30.658 14.278-31.536 14.215-12.91 8.68-35.692 2.318-40.474 3.721-.888-.01-.306 1.903-.611 2.1 1.149 2.609 11.467 20.94 14.057 20.199-1.965 2.301-4.573 3.861-6.703 5.994-3.563 3.407-20.183 22.97-29.188 32.226-3.299 3.116-7.231 5.458-11.015 7.925-3.707 2.297-7.834 3.813-11.946 5.165-5.088 1.55-48.998 9.413-48.466 10.752 6.297 9.553 15.622 12.758 24.796 18.939.927 1.164 2.217 2.036 2.87 3.427 2.237 7.914-1.767 18.591.75 26.649.872 1.3 1.051 2.842 1.337 4.343 1.651-.92 3.293-1.848 4.862-2.915 3.204-2.646 20.207-20.878 22.858-23.625 2.599-2.68 4.616-5.83 7.153-8.52 1.45-1.516 2.42-3.399 3.954-4.795 3.124-2.648 6.298-5.297 9.962-7.188 2.561-1.305 5.103-2.615 7.804-3.632 2.043-.764 16.91-6.813 26.596-9.226 5.482-2.96 30.485-7.676 32.606-8.49.157 6.931 2.254 9.44 5.275 15.846.831 2.408 2.282 4.852 4.84 5.632 1.06.2 2.151-.461 2.574-1.43 3.35-18.288 12.528-30.423 11.998-32.37 7.019-3.43 13.142-8.34 19.7-12.525 35.711-23.6 48.33-58.799 49.809-61.542 1.29-2.217 2.636-4.624 2.563-7.268.384-1.43-1.034-2.924-2.458-2.634zM803.18 78.043a4.565 4.565 0 0 1-6.31-1.362 4.565 4.565 0 0 1 1.353-6.313 4.57 4.57 0 0 1 6.319 1.357 4.566 4.566 0 0 1-1.362 6.318z" fill="#0a0"/></svg>