<svg xmlns="http://www.w3.org/2000/svg" width="574.119" height="411.702"><path d="M2.013 133.735c-2.13 1.473-2.655 4.44-1.164 6.597l74.99 108.471c1.491 2.157 4.454 2.716 6.584 1.243l6.186-4.277c2.13-1.473 2.656-4.442 1.165-6.599l-74.99-108.472c-1.491-2.156-4.454-2.713-6.584-1.24z" fill="#333"/><path d="M103.26 19.244C122.015 8.37 141.646 3.65 156.625 1.561 171.614-.512 181.989.072 182.32.086c3.876.225 6.872 3.556 6.692 7.446a6.942 6.942 0 0 1-7.337 6.64c-.26-.017-8.776-.441-21.11 1.118l10.23 17.55 34.574-20.384c2.231-1.316 5.276-.63 6.766 1.526l56.537 81.78c1.491 2.156 1.06 5.249-.961 6.87l-71.506 57.473 39.356-7.803c2.547-.506 5.85.845 7.339 3l9.202 13.31c1.49 2.155.664 4.483-1.836 5.175l-108.24 29.868-42.392 34.07c-2.017 1.623-4.89 1.186-6.38-.97L18.262 128.283c-1.49-2.156-.883-4.997 1.347-6.31l62.457-36.828L71.04 66.226c-.727.978-1.414 1.932-2.057 2.856-3.185 4.566-5.386 8.442-6.774 11.127a63.894 63.894 0 0 0-1.488 3.071c-.152.34-.259.594-.323.746-.03.076-.053.127-.064.155l-.001.001c-1.406 3.617-5.477 5.37-9.093 3.918a7.086 7.086 0 0 1-3.207-2.56 7.1 7.1 0 0 1-.795-6.614c.317-.782 11.608-29.53 45.87-53.25 3.18-2.2 6.561-4.351 10.147-6.435zM79.029 56.575c.025.044.055.08.08.122l13.1 22.476 68.451-40.358-12.5-21.443c-11.754 2.475-25.153 6.772-37.767 14.106a138.772 138.772 0 0 0-9.227 5.852c-9.093 6.286-16.38 12.96-22.137 19.245z" fill="#660080"/><path d="M216.966 5.263s6.343-3.683 6.916-4.079c5.02-3.47 19.525 8.55 34.285 27.744l5.568-6.821c1.632-2.016 4.19-1.9 5.68.255l11.638 16.834c1.49 2.156.698 4.594-1.76 5.417l-8.349 2.799C283.688 68 289.81 85.817 284.79 89.288c-.572.395-6.258 5.029-6.258 5.029-2.02 1.622-4.891 1.187-6.382-.97l-56.542-81.786c-1.488-2.155-.881-4.995 1.35-6.31z" fill="#333"/><path d="M307.836 203.22c-.706.011-1.38.278-2.081.16-.014-.047-.026-.137-.033-.184.61-.268 1.283-.431 1.841-.821.3-.285.728-.621.534-1.095-.21-.975-1.091-1.587-1.852-2.122-.91-.654-1.937-1.09-2.909-1.613-1.07-.471-2.499-2.174-17.07-5.098-5.373-1.093-10.822-1.623-11.048-1.797-5.033.036-10.043-5.749-11.584-6.224-.238-.161-.422.459-.54.457-.156.91-.646 7.698.186 7.96-.942.27-1.924.225-2.88.42-1.57.283-9.547 2.593-13.63 3.483-1.446.251-2.925.18-4.387.17-1.41-.042-2.794-.37-4.145-.74-1.65-.49-14.9-6.21-14.996-5.754-.007 3.702 1.936 6.233 3.308 9.538.042.48.234.946.162 1.438-.81 2.534-3.797 4.7-4.557 7.323.004.507-.224.955-.415 1.411.61.047 1.219.09 1.833.082 1.336-.142 9.18-2.024 10.386-2.292 1.18-.26 2.286-.749 3.451-1.021.662-.15 1.26-.485 1.923-.588 1.316-.156 2.646-.304 3.972-.16.924.105 1.843.205 2.754.413.687.16 5.779 1.182 8.823 2.26 2.008.181 9.596 3.374 10.313 3.533-1.195 1.898-1.077 2.95-1.406 5.217-.206.799-.251 1.717.3 2.384.25.244.663.26.95.074 4.17-4.336 8.813-5.97 9.017-6.59 2.507.327 5.036.096 7.552.138 13.85.01 23.54-7.233 24.43-7.709.743-.368 1.536-.777 1.989-1.503.359-.317.243-.974-.193-1.15zm-8.375-.53a1.477 1.477 0 0 1-1.46-1.495 1.477 1.477 0 1 1 2.956.033 1.477 1.477 0 0 1-1.496 1.462z" fill="#37c837"/><path d="M410.063 259.873c-1.37.021-2.678.539-4.04.311-.028-.094-.05-.267-.063-.358 1.183-.52 2.49-.838 3.573-1.595.581-.552 1.414-1.206 1.037-2.126-.406-1.893-2.119-3.08-3.596-4.12-1.766-1.27-3.76-2.116-5.647-3.13-2.076-.915-4.852-4.221-33.142-9.9-10.431-2.12-21.009-3.15-21.447-3.487-9.772.07-19.499-11.16-22.49-12.084-.462-.313-.82.89-1.049.888-.302 1.765-1.254 14.945.36 15.454-1.827.524-3.734.437-5.59.816-3.047.55-18.535 5.034-26.461 6.76-2.808.489-5.68.352-8.518.332-2.737-.082-5.425-.718-8.048-1.436-3.202-.952-28.929-12.057-29.114-11.172-.013 7.188 3.76 12.1 6.422 18.518.082.93.455 1.835.315 2.79-1.572 4.92-7.371 9.125-8.847 14.219.008.983-.434 1.853-.805 2.738 1.184.092 2.366.174 3.558.159 2.595-.275 17.822-3.93 20.164-4.45 2.29-.503 4.438-1.453 6.7-1.982 1.286-.292 2.446-.942 3.734-1.141 2.554-.304 5.136-.591 7.71-.311 1.794.204 3.58.4 5.347.803 1.335.308 11.22 2.294 17.13 4.388 3.898.35 18.63 6.549 20.023 6.858-2.32 3.685-2.093 5.727-2.731 10.13-.4 1.549-.487 3.332.582 4.628.487.472 1.287.504 1.845.142 8.095-8.417 17.11-11.592 17.507-12.795 4.866.637 9.776.188 14.662.27 26.888.02 45.702-14.043 47.427-14.967 1.444-.714 2.984-1.509 3.863-2.918.696-.617.472-1.89-.375-2.233zm-16.259-1.03a2.867 2.867 0 0 1-2.833-2.902 2.867 2.867 0 0 1 2.898-2.837 2.87 2.87 0 1 1-.065 5.738z" fill="#0055d4"/><path d="M445.142 411.407c1.98-.39 5.313-2.263 7.944-4.462 4.492-3.756 11.154-12.7 16.782-22.53 2.898-5.06 8.73-16.499 11.501-22.56 2.317-5.065 1.364-4.579 9.926-5.07 25.886-1.483 44.294-5.057 55.504-10.775 2.14-1.092 3.308-1.925 2.72-1.94-.222-.006-.568-.369-.767-.807-.347-.762-.39-.772-.971-.246-.58.525-.635.514-1.2-.234-.526-.698-.614-.724-.803-.23-.3.778-.989.689-1.21-.157-.184-.702-.19-.703-.673-.08-.467.606-.504.609-.933.056-.282-.364-.522-.451-.654-.238-.114.185-.477.337-.806.337-.646 0-1.147-.548-.809-.886.114-.114.327-.016.471.218.209.337.334.302.601-.168.279-.49.443-.53.947-.221.49.299.711.27 1.127-.145.477-.477.55-.471.956.084.426.582.447.58.66-.094.266-.838.667-.895.962-.139.194.498.284.474.859-.231.617-.757.66-.765 1.076-.196.412.565.451.553.815-.244.254-.558.63-.838 1.124-.838 2.505 0 20.706-5.365 22.292-6.571 2.96-2.25 1.552-5.312-3.455-7.519-1.59-.701-2.631-1.039-8.56-2.779-2.993-.878-9.347-2.197-10.583-2.197-.584 0-1.694-.208-2.468-.462-1.474-.484-10.281-1.905-14.912-2.407-1.486-.161-3.488-.435-4.45-.609-7.947-1.438-41.84-4.718-71.293-6.9l-15.933-1.181-7.805-7.95c-4.293-4.373-7.893-7.808-8-7.635-.107.174.297 1.448.899 2.832.601 1.383 1.046 2.658.988 2.832-.058.174-1.311-.829-2.785-2.228-8.624-8.187-17.324-14.483-24.108-17.445-2.77-1.21-5.032-1.925-5.285-1.672-.096.096.136 1.728.515 3.626.966 4.834 1.21 12.826.492 16.058-1.068 4.798-3.447 8.221-6.946 9.995-.864.438-1.477.894-1.36 1.013.115.12 3.31.8 7.1 1.514l6.893 1.297-5.561.222c-14.624.585-33.23 2.357-49.095 4.676-3.495.51-6.818.929-7.384.929-2.132 0-10.92-3.35-12.74-4.855-.234-.193-1.005-.316-1.716-.275-1.136.068-1.404-.06-2.222-1.051-1.413-1.715-5.007-3.619-5.018-2.659-.013 1.116-.474 1.22-2.396.544-2.062-.727-5.602-1.54-6.735-1.55-.581-.005-.715.17-.715.933 0 2.72-1.792 7.455-3.456 9.133-.487.49-1.48 1.294-2.209 1.786-1.527 1.03-2 2.223-1.198 3.025.408.409 1.344.566 4.093.688l3.564.16-3.495.603c-4.908.848-14.317 3.23-15.788 3.997-1.732.903-2.1.826-3.62-.762-.898-.936-2.178-1.773-3.839-2.508-1.37-.607-5.853-2.708-9.96-4.669-35.965-17.172-62.426-26.656-81.665-29.27-3.28-.446-13.461-.59-13.855-.196-.133.134.57.968 1.564 1.854 1.985 1.769 4.656 4.95 7.043 8.389.85 1.223 1.644 2.341 1.766 2.485.121.143 1.9-.045 3.951-.418 2.052-.373 3.908-.61 4.124-.528.216.083 9.46 7.281 20.54 15.996 11.082 8.714 21.804 17.082 23.829 18.596 6.406 4.79 10.094 9.401 10.625 13.281.153 1.118-.054 2.264-.944 5.244-2.05 6.858-5.097 14.861-8.075 21.21-1.2 2.56-1.48 3.416-1.12 3.416 1.277 0 14.826-7.386 21.345-11.637 10.85-7.075 21.741-16.977 24.368-22.158.8-1.576 2.96-3.472 4.557-3.999 1.158-.382 1.914-.275 9.951 1.408 4.784 1.001 8.876 1.917 9.093 2.035.218.118-2.75 1.124-6.593 2.236-3.844 1.112-6.99 2.124-6.99 2.25 0 .125 2.468.855 5.482 1.621l5.482 1.393.396 3.788c.45 4.31.873 5.269 2.325 5.269 1.358 0 3.091-.97 5.765-3.225 10.859-9.159 22.995-12.023 40.077-9.457l2.487.373-2.389 1.039c-1.314.571-2.715 1.267-3.114 1.546-.533.374-1.483.51-3.593.511-3.268.003-9.36.674-12.879 1.418-3.27.691-7.626 2.039-7.626 2.36 0 .31 4.12 1.147 7.936 1.612 1.48.18 5.127.329 8.103.33 5.109.002 5.506.048 7.127.802 3.372 1.57 5.928 3.55 8.094 6.27 2.113 2.654 3.755 4.047 4.769 4.047.307 0 1.728-.911 3.158-2.025 3.869-3.013 9.428-6.575 13.94-8.93l4.004-2.09 2.973.666c14.13 3.165 29.992 4.72 44.202 4.333l6.912-.189v1.12c0 .615.166 1.43.369 1.808.444.83 1.03 3.82 1.759 8.961.414 2.924.542 6.147.548 13.823.008 10.045-.228 13.346-1.526 21.29-.243 1.486-.398 2.75-.344 2.808.176.196 2.52.673 3.166.645.35-.015 1.244-.147 1.988-.294zm94.136-69.413c.217-.262.538-.476.713-.476.177 0 .143.21-.078.476-.217.262-.538.477-.713.477-.177 0-.143-.21.078-.477zm-1.43.16c-.108-.176-.054-.319.121-.319s.406.143.514.318c.108.175.054.318-.121.318s-.406-.143-.514-.318z" fill="#ff2a7f"/></svg>