<svg xmlns="http://www.w3.org/2000/svg" width="1357.777" height="1119.876"><path d="M581.905 783.913L387.936 671.926V447.95l193.969-111.987L775.873 447.95v223.976z" fill="#fd5"/><path d="M590.318 713.304c1.305 2.238 4.223 2.988 6.487 1.668l113.91-66.439c2.266-1.32 3.05-4.231 1.745-6.469l-3.789-6.496c-1.305-2.238-4.225-2.989-6.49-1.668l-113.91 66.439c-2.264 1.32-3.047 4.231-1.743 6.469z" fill="#333"/><path d="M483.94 603.564c-9.401-19.534-12.6-39.469-13.533-54.564-.915-15.105.464-25.405.504-25.734.521-3.847 4.073-6.579 7.937-6.1a6.942 6.942 0 0 1 6.056 7.825c-.035.258-1.113 8.716-.506 21.134l18.284-8.853-17.668-36.036c-1.141-2.326-.223-5.309 2.041-6.63l85.88-50.09c2.265-1.32 5.315-.652 6.777 1.487l51.811 75.708-4.757-39.839c-.31-2.578 1.29-5.767 3.554-7.087l13.978-8.153c2.263-1.32 4.52-.317 5.018 2.229l21.467 110.215 30.715 44.882c1.463 2.135.807 4.966-1.458 6.287l-113.91 66.439c-2.264 1.32-5.05.497-6.188-1.828l-31.923-65.1-19.71 9.541c.92.8 1.818 1.558 2.69 2.27 4.308 3.526 8.003 6.02 10.574 7.608a63.894 63.894 0 0 0 2.948 1.72c.327.178.571.304.719.38l.15.076c3.498 1.68 4.934 5.874 3.208 9.367a7.086 7.086 0 0 1-2.798 3.001 7.1 7.1 0 0 1-6.656.285c-.756-.376-28.551-13.841-49.57-49.824a152.223 152.223 0 0 1-5.637-10.61zm35.36 27.028c.046-.022.083-.049.128-.07l23.415-11.336-34.982-71.349-22.339 10.816c1.565 11.91 4.82 25.6 11.163 38.74a138.773 138.773 0 0 0 5.127 9.648c5.57 9.55 11.664 17.328 17.488 23.55z" fill="#660080"/><path d="M478.733 489.12s-3.185-6.607-3.536-7.208c-3.075-5.272 10.024-18.811 30.295-32.054l-6.374-6.075c-1.885-1.782-1.572-4.323.69-5.643l17.679-10.311c2.264-1.32 4.634-.344 5.265 2.17l2.15 8.54c21.507-11.126 39.74-15.86 42.816-10.589.35.601 4.534 6.626 4.534 6.626 1.462 2.139.807 4.968-1.458 6.289l-85.886 50.094c-2.263 1.318-5.048.495-6.188-1.831z" fill="#333"/><g fill="#999"><path d="M622.922 459.797c1.785-8.942 1.065-15.662-1.87-20.699-3.12-5.333-8.19-7.942-12.847-9.742-4.707-1.789-9.333-2.991-12.599-4.76-2.192-1.175-3.712-2.454-4.74-4.212-1.529-2.592-2.345-7.098-.212-15.622a4.19 4.19 0 0 0-3.138-5.122c-2.311-.531-4.653.898-5.233 3.197-2.415 9.578-1.968 16.643 1.092 21.916 3.068 5.223 8.095 7.698 12.699 9.45 4.661 1.743 9.262 2.955 12.57 4.792 2.219 1.22 3.805 2.572 4.92 4.472 1.548 2.653 2.438 6.991.898 14.834a4.193 4.193 0 0 0 3.397 4.955 4.376 4.376 0 0 0 2.97-.537 4.356 4.356 0 0 0 2.093-2.922z"/><path d="M640.407 449.6c1.784-8.942 1.064-15.663-1.87-20.7-3.12-5.333-8.19-7.942-12.847-9.742-4.709-1.788-9.334-2.99-12.598-4.76-2.194-1.175-3.713-2.453-4.741-4.212-1.53-2.592-2.346-7.098-.213-15.622a4.19 4.19 0 0 0-3.139-5.122c-2.31-.53-4.652.899-5.233 3.197-2.412 9.577-1.967 16.643 1.093 21.917 3.07 5.221 8.096 7.697 12.699 9.448 4.662 1.744 9.263 2.956 12.57 4.793 2.22 1.22 3.806 2.572 4.922 4.471 1.548 2.653 2.436 6.992.897 14.835a4.193 4.193 0 0 0 3.397 4.955 4.374 4.374 0 0 0 2.97-.536 4.36 4.36 0 0 0 2.093-2.923z"/></g><path d="M584.884 482.37c.112 1.41.73 2.721.585 4.138-.095.035-.272.07-.364.089-.614-1.184-1.026-2.508-1.876-3.574-.606-.561-1.333-1.376-2.255-.928-1.922.542-3.032 2.382-4.005 3.97-1.191 1.9-1.932 4.008-2.853 6.017-.805 2.196-4.025 5.269-8.018 34.753-1.5 10.874-1.868 21.827-2.187 22.3.712 10.05-10.21 20.796-10.964 23.935-.292.495.97.785.982 1.02 1.836.197 15.462.313 15.88-1.38.66 1.845.695 3.813 1.206 5.698.764 3.1 6.392 18.745 8.688 26.79.686 2.857.733 5.822.898 8.743.095 2.823-.385 5.63-.951 8.376-.77 3.358-10.516 30.56-9.593 30.692 7.397-.456 12.206-4.66 18.636-7.82.953-.145 1.86-.588 2.851-.507 5.167 1.297 9.873 6.99 15.211 8.175 1.011-.071 1.936.326 2.871.65.016-1.225.024-2.447-.07-3.672-.452-2.653-5.21-18.085-5.897-20.46-.668-2.324-1.786-4.473-2.479-6.766-.384-1.304-1.129-2.455-1.418-3.767-.48-2.61-.944-5.247-.825-7.915.093-1.86.177-3.71.477-5.555.23-1.394 1.627-11.696 3.396-17.915.105-4.034 5.52-19.6 5.748-21.054 3.944 2.147 6.03 1.779 10.602 2.148 1.62.31 3.461.283 4.725-.902.454-.532.435-1.358.026-1.908-9.191-7.78-13.048-16.85-14.312-17.18.336-5.048-.446-10.072-.682-15.105-1.738-27.672-17.44-46.113-18.505-47.829-.829-1.439-1.747-2.972-3.255-3.784-.68-.676-1.976-.362-2.273.532zm.003 16.8a2.957 2.957 0 0 1-2.8 3.106 2.957 2.957 0 0 1-3.11-2.797 2.96 2.96 0 1 1 5.91-.309z" fill="#fff"/><path d="M193.968 783.913L0 671.926V447.95l193.968-111.987L387.936 447.95v223.976z" fill="#d4aa00"/><path d="M387.936 447.95L193.968 335.963V111.988L387.936 0l193.969 111.988v223.975z" fill="#d38d5f"/><path d="M775.873 1119.876l-193.968-111.988V783.913l193.968-111.987L969.84 783.913v223.975z" fill="#aad400"/><path d="M387.936 1119.876l-193.968-111.988V783.913l193.968-111.987 193.969 111.987v223.975z" fill="#ff7f2a"/><path d="M969.841 783.913L775.873 671.926V447.95L969.84 335.963 1163.81 447.95v223.976z" fill="#80e5ff"/><path d="M1163.81 1119.876L969.84 1007.888V783.913l193.968-111.987 193.969 111.987v223.975z" fill="#37c871"/></svg>