<svg xmlns="http://www.w3.org/2000/svg" width="534.12" height="287.999"><g transform="translate(-122.705 -84.492)"><path d="M159.787 367.782c0 2.59 2.143 4.709 4.764 4.709h442.541c2.622 0 4.766-2.12 4.766-4.71v-7.52c0-2.59-2.144-4.71-4.766-4.71H164.551c-2.621 0-4.764 2.12-4.764 4.71z" fill="#333"/><path d="M123.187 219.392c1.72-21.61 9-40.442 15.8-53.951 6.82-13.51 13.2-21.711 13.4-21.975 2.389-3.061 6.833-3.631 9.93-1.271a6.942 6.942 0 0 1 1.289 9.81v.002c-.161.204-5.353 6.967-11.085 18l20.254 1.564 2.894-40.03c.186-2.584 2.482-4.698 5.103-4.698h410.942c2.622 0 4.92 2.114 5.105 4.698l6.612 91.5 15.962-36.81c1.032-2.382 4.02-4.33 6.64-4.33h16.183c2.619 0 4.064 2.003 3.212 4.453l-36.985 106.02 3.919 54.245c.188 2.58-1.805 4.696-4.427 4.696H164.543c-2.621 0-4.612-2.115-4.424-4.696l5.223-72.318-21.832-1.688c.39 1.154.785 2.26 1.179 3.316 1.945 5.216 3.88 9.23 5.3 11.899a63.894 63.894 0 0 0 1.68 2.97c.194.319.342.55.43.69.046.069.075.116.092.142 2.176 3.214 1.303 7.56-1.948 9.708a7.086 7.086 0 0 1-3.93 1.183 7.1 7.1 0 0 1-5.892-3.107c-.463-.706-17.69-26.341-17.716-68.013-.002-3.867.15-7.872.476-12.006zm16.927 41.162c.05.004.096 0 .145.004l25.938 2.005 5.729-79.256-24.746-1.912c-4.65 11.076-8.734 24.54-9.875 39.088a138.773 138.773 0 0 0-.433 10.917c0 11.055 1.346 20.844 3.242 29.154z" fill="#660080"/><path d="M176.347 117.91s.578-7.311.578-8.007c0-6.103 173.268-11.2 197.45-12.425l-2.445-8.46c-.73-2.488.82-4.526 3.44-4.526h26.98c2.62 0 4.176 2.038 3.455 4.528l-2.445 8.459c24.183 1.226 192.565 6.322 192.565 12.425 0 .696.578 8.008.578 8.008.186 2.584-1.805 4.698-4.427 4.698H180.755c-2.62-.001-4.61-2.115-4.423-4.7z" fill="#333"/><g fill="#999"><path d="M627.77 165.227c6.048-6.825 8.812-12.993 8.814-18.822-.01-6.18-3.074-10.987-6.19-14.888-3.164-3.917-6.554-7.286-8.484-10.46-1.301-2.12-1.97-3.99-1.973-6.026-.014-3.01 1.55-7.313 7.688-13.601a4.19 4.19 0 0 0-.13-6.006c-1.73-1.623-4.472-1.568-6.131.125-6.912 7.057-10.085 13.385-10.1 19.482.02 6.057 3.116 10.728 6.21 14.56 3.148 3.855 6.512 7.22 8.444 10.473 1.302 2.172 1.99 4.139 1.997 6.342 0 3.07-1.417 7.267-6.698 13.266a4.193 4.193 0 0 0 .438 5.992 4.376 4.376 0 0 0 2.836 1.033 4.356 4.356 0 0 0 3.28-1.47z"/><path d="M648.012 165.227c6.046-6.825 8.81-12.993 8.813-18.822-.008-6.18-3.073-10.987-6.19-14.888-3.165-3.917-6.554-7.286-8.482-10.46-1.304-2.12-1.972-3.99-1.974-6.026-.015-3.01 1.55-7.313 7.687-13.601a4.19 4.19 0 0 0-.131-6.006c-1.728-1.623-4.471-1.568-6.131.125-6.91 7.057-10.084 13.385-10.098 19.482.02 6.057 3.116 10.728 6.209 14.56 3.149 3.855 6.513 7.22 8.444 10.473 1.303 2.172 1.99 4.139 1.999 6.342 0 3.07-1.42 7.267-6.7 13.266a4.193 4.193 0 0 0 .438 5.992 4.374 4.374 0 0 0 2.835 1.033 4.36 4.36 0 0 0 3.28-1.47z"/></g><switch transform="matrix(-3.01003 -.9475 -.9475 3.01003 577.058 143.43)" fill="#0cf"><g><circle r=".958" cy="6.724" cx="8.858"/><path d="M74.602 69.413l-1.588-.652a65.63 65.63 0 0 0-4.363-1.56c-1.697-.59-3.697-.944-5.748-1.724-4.121-1.503-8.686-3.992-12.877-7.526a44.005 44.005 0 0 1-5.894-6.02c-1.796-2.237-3.351-4.718-4.663-7.32-1.301-2.608-2.372-5.331-3.239-8.067-.44-1.36-.809-2.749-1.229-4.111a56.56 56.56 0 0 0-1.383-3.99c-1.003-2.587-2.176-5.016-3.488-7.209a35.624 35.624 0 0 0-4.295-5.788c-3.026-3.328-6.299-5.352-8.72-6.4a18.597 18.597 0 0 0-2.918-1.012 13.28 13.28 0 0 0-.817-.174l-.299-.046a.678.678 0 0 0-.772.575.677.677 0 0 0 .576.763l.041.005.234.033c.16.023.405.071.723.144a17.41 17.41 0 0 1 2.721.9c2.288.954 5.432 2.826 8.395 5.991a34.486 34.486 0 0 1 4.242 5.551c1.31 2.118 2.494 4.48 3.515 7.009a55.146 55.146 0 0 1 1.417 3.909c.435 1.337.821 2.716 1.291 4.098.918 2.76 2.042 5.5 3.4 8.128 1.368 2.621 2.983 5.116 4.839 7.36a44.564 44.564 0 0 0 6.049 6.002c4.285 3.506 8.912 5.942 13.078 7.395 2.084.756 4.09 1.082 5.783 1.644 1.711.516 3.18 1.04 4.379 1.495.598.235 1.131.444 1.594.628l1.164.505.965.422-.959-.436-1.154-.522z"/><path d="M21.407 20.546a.406.406 0 1 1-.709-.395l.919-1.647c-.048-.049-.094-.1-.142-.147-.26-.26-.528-.501-.794-.748l-1.369 1.635a.406.406 0 0 1-.571.05.4.4 0 0 1-.051-.571l1.389-1.659a25.56 25.56 0 0 0-1.054-.875l-1.867 1.229a.406.406 0 0 1-.446-.678l1.615-1.063a24.107 24.107 0 0 0-.944-.639c-2.355.979-5.163 2.711-1.115 6.471 4.038 3.751 5.9 1.163 6.572-1.684-.21-.241-.424-.477-.638-.708zM24.37 6.909a.406.406 0 0 1 .709.396L23.972 9.29c.321.244.64.495.955.758l1.537-1.836a.405.405 0 0 1 .571-.05.4.4 0 0 1 .051.571l-1.544 1.845c.317.278.629.569.939.867l2.137-1.406a.406.406 0 0 1 .446.678l-1.99 1.311c.227.234.453.472.68.715 2.39-.963 5.489-2.685 1.322-6.557-4.188-3.891-6.037-.961-6.643 2.003.296.195.589.404.882.614z"/><path d="M91.334 87.422l.096-.012c.027-.003.113-.021.105-.02.051-.014.066-.013.15-.038a1.969 1.969 0 0 0 1.424-1.997l-.021-.181-.021-.138a10.59 10.59 0 0 0-.115-.53c-.088-.342-.18-.675-.289-1a19.365 19.365 0 0 0-.727-1.882 22.751 22.751 0 0 0-1.867-3.344c-2.793-4.106-6.336-6.689-9.328-8.46-3.033-1.753-5.617-2.725-7.379-3.339-.881-.315-1.572-.508-2.033-.648l-.701-.211-.715-.176c-.469-.11-1.164-.273-2.062-.516a41.492 41.492 0 0 1-7.541-2.805c-3.119-1.504-6.723-3.769-10.22-7.056-3.5-3.278-6.765-7.67-9.255-12.976a32.974 32.974 0 0 1-.902-2.029 30.74 30.74 0 0 1-.83-2.107c-.554-1.434-.954-2.899-1.457-4.456l-.725-2.325-.833-2.375c-.293-.791-.62-1.573-.938-2.366-.329-.79-.699-1.569-1.051-2.361a44.297 44.297 0 0 0-5.633-9.081c-2.326-2.818-5.142-5.414-8.536-7.189A21.191 21.191 0 0 0 8.749 5.339a9.102 9.102 0 0 0-2.924.688c-.465.205-.927.455-1.317.843-.393.374-.681.954-.639 1.545.014.578.346 1.138.767 1.477.422.352.903.569 1.384.737a9.23 9.23 0 0 0 1.472.358c.256.042.476.078.76.103.283-.002.486.004.735.017 3.837.264 7.531 1.952 10.616 4.318 3.092 2.399 5.607 5.497 7.656 8.842 2.069 3.343 3.626 6.984 4.952 10.67 1.334 3.732 2.624 7.482 4.258 11.112.827 1.81 1.759 3.586 2.855 5.262 1.089 1.681 2.36 3.229 3.704 4.663l.508.533.271.281.258.249c.352.331.672.665 1.049.994a52.188 52.188 0 0 0 2.233 1.906 49.381 49.381 0 0 0 4.705 3.336c.402.26.838.491 1.254.733l1.27.639c.814.423 1.674.809 2.533 1.19 1.711.771 3.393 1.454 5.08 2.118 1.682.667 3.361 1.273 5.033 1.855.428.143.854.284 1.277.427l1.242.37c.799.253 1.596.537 2.379.835 3.133 1.201 6.09 2.626 8.74 4.296 2.627 1.684 5.002 3.623 6.572 5.968.787 1.164 1.367 2.421 1.641 3.721l.049.244.033.159c.01.041.016.081.043.169.094.297.217.506.393.717a2.01 2.01 0 0 0 1.743.708zM9.316 10.189a.675.675 0 1 1-.956-.955.675.675 0 0 1 .956.955zm.009-2.998a.661.661 0 1 1-.935-.936.661.661 0 0 1 .935.936zM75.75 69.948l-1.164-.505c-.463-.184-.996-.393-1.594-.628a65.847 65.847 0 0 0-4.379-1.495c-1.693-.562-3.699-.888-5.783-1.644-4.166-1.452-8.793-3.889-13.078-7.395a44.564 44.564 0 0 1-6.049-6.002c-1.856-2.244-3.471-4.739-4.839-7.36a56.77 56.77 0 0 1-3.4-8.128c-.47-1.382-.856-2.761-1.291-4.098a55.646 55.646 0 0 0-1.417-3.909c-1.021-2.529-2.206-4.891-3.515-7.009a34.486 34.486 0 0 0-4.242-5.551c-2.963-3.165-6.107-5.037-8.395-5.991a17.304 17.304 0 0 0-2.721-.9c-.318-.072-.563-.12-.723-.144l-.234-.033-.041-.005a.676.676 0 1 1 .196-1.338l.299.046c.191.032.464.09.816.173.698.178 1.705.479 2.918 1.012 2.421 1.048 5.694 3.073 8.72 6.4a35.624 35.624 0 0 1 4.295 5.788c1.312 2.193 2.485 4.622 3.488 7.209A57.595 57.595 0 0 1 35 32.431c.421 1.363.789 2.751 1.229 4.111a56.051 56.051 0 0 0 3.239 8.067c1.312 2.602 2.867 5.083 4.663 7.32a44.062 44.062 0 0 0 5.894 6.02c4.192 3.534 8.756 6.023 12.877 7.526 2.051.779 4.051 1.134 5.748 1.724a65.63 65.63 0 0 1 4.363 1.56l1.588.652 1.154.521.959.436s-.335-.144-.964-.42zM93.834 86.943a2.87 2.87 0 0 1-.295.532c-.062.089-.133.171-.203.254l1.545 2.878a.406.406 0 1 1-.644.479.395.395 0 0 1-.068-.096l-1.465-2.727c-.068.042-.135.087-.205.123l.664 3.076a.405.405 0 1 1-.792.171l-.645-2.985a2.245 2.245 0 0 1-.266.035l-.205 2.903a.406.406 0 1 1-.811-.056l.205-2.899a3.018 3.018 0 0 1-.43-.127c-.084-.031-.17-.061-.252-.102-.088-.043-.17-.099-.254-.151-.174 3.607.08 5.693 1.111 6.724.682.683 1.695.872 3.094.578 1.061-.221 1.752-.758 2.051-1.596.652-1.815-.731-4.727-2.135-7.014z"/></g></switch></g></svg>