<svg xmlns="http://www.w3.org/2000/svg" width="763.265" height="530.824"><path d="M317.996 283.29c0 2.59 2.143 4.71 4.764 4.71h131.87c2.622 0 4.766-2.12 4.766-4.71v-7.52c0-2.59-2.144-4.71-4.766-4.71H322.76c-2.62 0-4.764 2.12-4.764 4.71z" fill="#333"/><path d="M281.396 134.9c1.72-21.61 9-40.442 15.8-53.95 6.82-13.51 13.2-21.712 13.4-21.976 2.39-3.06 6.833-3.63 9.93-1.27a6.942 6.942 0 0 1 1.29 9.81v.001c-.162.204-5.354 6.967-11.086 18l20.254 1.564 2.894-40.03c.186-2.584 2.482-4.698 5.103-4.698h99.42c2.622 0 4.92 2.114 5.105 4.698l6.612 91.501 15.962-36.81c1.032-2.383 4.021-4.33 6.641-4.33h16.182c2.62 0 4.064 2.002 3.212 4.452l-36.985 106.02 3.92 54.245c.187 2.581-1.806 4.696-4.428 4.696h-131.87c-2.62 0-4.612-2.115-4.424-4.696l5.223-72.318-21.832-1.688c.391 1.154.785 2.261 1.18 3.316 1.944 5.216 3.88 9.231 5.3 11.9a63.894 63.894 0 0 0 1.68 2.97c.193.318.341.55.43.69l.091.141v.001c2.176 3.213 1.303 7.56-1.948 9.707a7.086 7.086 0 0 1-3.929 1.183 7.1 7.1 0 0 1-5.893-3.107c-.463-.706-17.689-26.34-17.716-68.013-.002-3.867.151-7.872.476-12.006zm16.927 41.162c.05.004.096 0 .145.004l25.938 2.005 5.73-79.256-24.747-1.912c-4.649 11.076-8.734 24.541-9.875 39.088a138.773 138.773 0 0 0-.433 10.917c0 11.055 1.346 20.844 3.242 29.154z" fill="#660080"/><path d="M334.556 33.419s.578-7.312.578-8.008c0-6.103 18.136-11.199 42.318-12.425l-2.445-8.459c-.73-2.489.82-4.527 3.44-4.527h20.465c2.621 0 4.176 2.038 3.455 4.528l-2.445 8.46c24.183 1.225 42.32 6.321 42.32 12.424 0 .696.577 8.008.577 8.008.186 2.584-1.805 4.698-4.427 4.698h-99.428c-2.619 0-4.61-2.115-4.423-4.699z" fill="#333"/><g fill="#999"><path d="M473.882 80.735c6.047-6.825 8.811-12.993 8.813-18.822-.009-6.179-3.074-10.987-6.189-14.888-3.165-3.917-6.555-7.286-8.485-10.459-1.3-2.12-1.97-3.99-1.973-6.027-.014-3.009 1.551-7.313 7.688-13.6a4.19 4.19 0 0 0-.13-6.007c-1.729-1.623-4.472-1.568-6.13.125-6.913 7.057-10.086 13.385-10.1 19.482.02 6.057 3.115 10.728 6.21 14.56 3.147 3.855 6.511 7.22 8.443 10.473 1.302 2.172 1.991 4.14 1.997 6.342 0 3.071-1.417 7.267-6.698 13.266a4.193 4.193 0 0 0 .438 5.992 4.376 4.376 0 0 0 2.836 1.033 4.356 4.356 0 0 0 3.28-1.47z"/><path d="M494.123 80.735c6.046-6.825 8.81-12.993 8.813-18.822-.008-6.179-3.073-10.987-6.189-14.888-3.166-3.917-6.555-7.286-8.483-10.459-1.304-2.12-1.972-3.99-1.974-6.027-.015-3.009 1.55-7.313 7.687-13.6a4.19 4.19 0 0 0-.13-6.007c-1.729-1.623-4.472-1.568-6.132.125-6.909 7.057-10.084 13.385-10.098 19.482.021 6.057 3.116 10.728 6.21 14.56 3.148 3.855 6.512 7.22 8.443 10.473 1.303 2.172 1.991 4.14 2 6.342 0 3.071-1.42 7.267-6.7 13.266a4.193 4.193 0 0 0 .437 5.992 4.374 4.374 0 0 0 2.835 1.033 4.36 4.36 0 0 0 3.281-1.47z"/></g><path d="M243.715 288.182V365.1h-222.9v43.572h-.229v122.153h742.68V408.672h-223.13v-120.49z" fill="#c87137" stroke="#000" stroke-width="6.843"/><g style="line-height:1.25"><path d="M104.555 452.027q15.104-13.568 22.784-23.04t7.68-15.744q0-4.096-2.56-6.272-2.432-2.176-6.656-2.176-7.936 0-16.512 4.992l-6.272-19.072q7.04-3.584 13.824-5.376 6.912-1.792 14.464-1.792 8.96 0 15.616 3.584 6.784 3.456 10.368 9.6 3.584 6.016 3.584 13.824 0 11.648-7.808 21.76-7.808 9.984-23.552 19.072h30.848v18.688h-55.808z" style="-inkscape-font-specification:'Paytone One'" font-size="128" font-family="Paytone One" fill="#fc0" font-weight="400" letter-spacing="0" word-spacing="0"/></g><g style="line-height:1.25"><path d="M367.413 373.082h10.752v-42.624l-10.752.768v-16.64q5.632 0 12.16-2.048 6.528-2.176 12.672-6.272h13.44v66.816h10.752v18.816h-49.024z" style="-inkscape-font-specification:'Paytone One'" font-size="128" font-family="Paytone One" fill="#fc0" font-weight="400" letter-spacing="0" word-spacing="0"/></g><g style="line-height:1.25"><path d="M655.324 513.829q-13.952 0-25.728-4.992l4.224-18.816q10.112 4.096 18.816 4.096 10.496 0 10.496-7.808 0-5.504-5.376-7.808-5.376-2.304-17.92-2.304v-15.872q11.392 0 17.024-2.304 5.76-2.304 5.76-6.528 0-5.76-9.856-5.76-9.344 0-19.328 4.352l-4.992-17.408q14.08-6.912 29.568-6.912 11.776 0 19.072 5.632 7.424 5.632 7.424 15.36 0 6.272-3.328 11.392-3.2 5.12-8.704 8.192 7.296 3.328 11.52 9.088 4.352 5.76 4.352 12.8 0 7.808-4.224 13.568-4.096 5.76-11.648 8.96-7.424 3.072-17.152 3.072z" style="-inkscape-font-specification:'Paytone One'" font-size="128" font-family="Paytone One" fill="#fc0" font-weight="400" letter-spacing="0" word-spacing="0"/></g><path d="M335.895 63.895l64.07 84.275-18.152 13.8-64.07-84.275z" fill="#f55"/><path d="M443.297 64.71l-64.07 84.274 18.152 13.8 64.07-84.275z" fill="#f55"/><ellipse ry="40.993" rx="43.974" cy="153.834" cx="389.621" fill="#fc0"/><path style="isolation:auto;mix-blend-mode:normal;marker:none" d="M592.93 258.076l-2.49 21.07 3.912 11.105 8.846 5.754h12.504l-1.812 25.205-15.98 8.885-20.95 9.958-5.223 4.494 2.048 2.855h5.71l20.479-8.26-1.457 7.652-24.776 16.517-1.032 3.947 3.34 4.311 6.195-3.428 20.782-7.986 2.061 2.576-4.122 5.324-15.973 11.851-5.41 5.754 1.202 3.521 7.815-.773 15.887-11.593 3.95 9.017 12.195 14.084 11.078 6.269 26.193-1.804 16.884-9.797 15.06-11.902 8.761-11.707 17.897 4.966h9.534l-1.093-3.765-24.23-13.359 2.915-6.497 23.832 5.774 10.305-1.804-1.975-4.723-29.026-12.28 1.904-4.638 24.35 4.676 6.377-3.097-.79-5.283-35.878-9.607 6.913-28.528 14.452-7.287 10.323-13.36 3.887-8.136.729-15.789-11.66 6.073-15.06 12.752-6.679 2.186 7.651-32.67-9.958 5.222-11.416 14.331-4.13 15.06 3.269 13.649 8.502 6.526-6.57 29.971-17.65-1.08 1.215-14.635 8.077-1.944 3.825-8.683-.576-11.186-6.785-6.44-9.103 3.263-5.41 2.92-4.466 7.47-2.06 9.275 2.49 3.264 3.607 2.748-1.986 12.49-20.1-1.397 1.943-11.78 9.29-4.494 5.345-8.501-2.308-10.263-8.5-4.61-7.988 2.32-9.198 6.602-.486 9.594 8.076 7.773-3.279 14.513-16.152-.138v-26.156l10.87-17.428 4.918-10.687-.972-14.938-20.828 30.049z" color="#000" overflow="visible" fill="#0055d4"/><path d="M683.935 293.186a9.325 9.84 0 0 1-9.325 9.841 9.325 9.84 0 0 1-9.326-9.84 9.325 9.84 0 0 1 9.326-9.842 9.325 9.84 0 0 1 9.325 9.841z" style="isolation:auto;mix-blend-mode:normal;marker:none" color="#000" overflow="visible" fill="#fff"/><g color="#000"><path d="M654.565 291.383a8.896 8.896 0 0 1-8.896 8.896 8.896 8.896 0 0 1-8.896-8.896 8.896 8.896 0 0 1 8.896-8.896 8.896 8.896 0 0 1 8.896 8.896z" style="isolation:auto;mix-blend-mode:normal;marker:none" overflow="visible" fill="#fff"/><path style="isolation:auto;mix-blend-mode:normal;marker:none" d="M647.18 286.737a1.42 1.754 0 0 1-1.42 1.754 1.42 1.754 0 0 1-1.42-1.754 1.42 1.754 0 0 1 1.42-1.753 1.42 1.754 0 0 1 1.42 1.753z" overflow="visible"/></g><path style="isolation:auto;mix-blend-mode:normal;marker:none" d="M676.206 287.891a1.845 1.693 0 0 1-1.845 1.693 1.845 1.693 0 0 1-1.844-1.693 1.845 1.693 0 0 1 1.844-1.693 1.845 1.693 0 0 1 1.845 1.693z" color="#000" overflow="visible"/><path d="M257.105 154.8c-2.353 1.558-5.477 2.332-7.951 1.969-.91-.134-3.455-.484-5.658-.778-7.92-1.06-11.154-1.699-12.912-2.555-.983-.478-2.546-1.075-3.474-1.326-.927-.251-3.763-1.245-6.301-2.209-2.538-.964-4.975-1.868-5.415-2.009l-4.206-1.34a599.438 599.438 0 0 1-5.198-1.675c-6.15-2.037-15.39-4.254-18.984-4.556a870.55 870.55 0 0 1-6.43-.642c-7.19-.734-10.051-.732-13.655.012-4.143.856-4.924 2.248-2.322 4.138 1.28.93 2.315 2.997 3.462 6.916 1.557 5.318 1.793 7.086 1.244 9.332-.56 2.295-.353 3.486 1.628 9.359 1.413 4.19 1.663 5.83 1.34 8.76-.354 3.22-.256 7.5.194 8.405.18.362.46 1.284.62 2.049.162.765 1.058 2.743 1.992 4.396.933 1.653 1.8 3.346 1.928 3.764.317 1.04 1.397 2.438 3.908 5.059 2.128 2.222 4.56 6.845 4.283 8.142-.07.326-.93 1.314-1.912 2.195-2.949 2.645-5.374 6.06-21.19 29.837-14.215 21.37-15.26 22.855-16.852 23.965-1.687 1.177-1.696 1.192-1.613 2.577.166 2.734 1.147 4.327 3.611 5.86 3.634 2.26 3.474 2.006 2.063 3.275-1.703 1.533-2.008 3.062-.984 4.933.453.827.723 1.656.6 1.841-.124.186-2.32 1.557-4.883 3.047-2.562 1.49-5.229 3.236-5.927 3.88-.698.643-1.599 1.39-2.002 1.66-1.448.968-4.26 4.073-6.201 6.845-1.374 1.962-2.578 3.245-3.945 4.204-2.359 1.654-3.641 2.794-5.652 5.025-.831.922-2.369 2.623-3.417 3.78-1.307 1.444-3.1 2.795-5.71 4.3-4.303 2.485-7.723 5.506-11.613 10.263-3.39 4.145-6.775 6.465-14.295 9.798-1.496.664-3.382 1.555-4.191 1.98-2.3 1.21-10.32 2.175-10.497 1.263-.019-.098.538-1.247 1.237-2.553.699-1.306 1.367-2.83 1.485-3.386.404-1.908-1.008-5.474-2.078-5.248-.385.082-.762-.182-1.164-.814-.525-.827-.74-.88-1.864-.451-.698.266-1.57.288-1.938.048-.426-.277-1.011-.17-1.61.292-.517.4-1.38.655-1.916.567-.72-.12-1.1.092-1.458.812-.364.732-.703.913-1.369.728-.72-.199-.95-.05-1.239.807-.195.579-.687 1.536-1.093 2.127-.509.738-.606 1.317-.313 1.852.235.428.202 1.23-.073 1.782-.363.727-.285 1.336.283 2.205.432.66.695 1.525.585 1.922-.11.396.017.96.28 1.25.44.486.429.5-.14.181-.342-.19-.73-.178-.866.029-.134.207-.428.122-.653-.188-.225-.31-1.084-.763-1.909-1.006-4.032-1.186-10.292.674-12.982 3.858-2.543 3.01-2.751 4.229-1.496 8.756.451 1.628 2.33 3.222 2.998 2.543.273-.278.24-.73-.079-1.081-.839-.924-.661-2.938.41-4.638.86-1.365 1.218-1.58 3.293-1.975 3.218-.613 5.827-.359 7.151.696.372.297 1.103.45 1.625.34.707-.15.982-.04 1.082.436.192.905 1.284 1.516 1.906 1.065.29-.21.682-.282.87-.16.406.265-1.846 2.916-3.03 3.567-1.015.557-5.923 6.358-7.828 9.252-2.347 3.565-4.322 8.568-4.29 10.865.042 2.881 1.235 5.557 3.167 7.097 1.512 1.205 1.717 1.252 3.61.823 1.594-.361 2.182-.724 2.861-1.767.713-1.096.758-1.584.268-2.961-.323-.907-.75-1.755-.95-1.885-.458-.298-1.067.6-.796 1.174.316.672-.523 1.675-1.092 1.305-.28-.183-.426-.46-.325-.615.101-.156-.027-.42-.284-.588-1-.651-.1-2.621 3.677-8.043 4.642-6.665 4.984-7.073 6.456-7.706.665-.286 1.333-.83 1.485-1.21.152-.38.701-.74 1.22-.8.582-.07 1.466-.74 2.307-1.752.75-.902 1.442-1.47 1.54-1.264.097.207.918-.119 1.824-.724.907-.605 2.068-1.064 2.581-1.02.513.044 1.665-.364 2.559-.907 1.873-1.139 1.408-.568-2.26 2.77-1.363 1.24-3.572 3.734-4.91 5.54-2.136 2.885-2.599 3.778-3.798 7.335-2.322 6.889-2.352 10.837-.122 15.936 2.2 5.029 2.886 7.725 2.37 9.313-.253.78-.436 1.858-.407 2.398.053.972.064.979 1.215.795.639-.102 1.258-.475 1.376-.829.378-1.134 1.712-1.272 3.583-.37 1.733.836 4.69 1.258 5.041.72.093-.143.676-.406 1.295-.583 1.683-.482 4.61-3.743 6.632-7.389 1.586-2.859 4.005-10.304 4.166-12.821.028-.434.762-2.279 1.63-4.101 2.024-4.244 8.284-12.61 11.65-15.569 1.258-1.106 2.443-2.25 2.634-2.543.19-.293 1.053-.986 1.916-1.54.864-.554 2.1-1.586 2.746-2.294.647-.708 1.375-1.283 1.619-1.277a.436.436 0 0 0 .452-.416c.013-.525 3.4-2.123 3.863-1.822.508.33-.068.984-1.111 1.26-1.21.319-1.605 1.725-.795 2.835.69.946.328 1.882-.647 1.673-.96-.205-2.057 1.739-1.57 2.784.488 1.052-.547 2.918-1.335 2.405-.285-.185-.943-.066-1.464.265-.822.522-.914.798-.694 2.087.36 2.115.066 3.057-.781 2.506-1.306-.85-3.38 1.792-2.64 3.363.157.335-.172.589-1.036.8-.96.234-1.36.574-1.658 1.408-1.286 3.612-1.497 4.004-2.203 4.086-1.136.132-2.134 1.986-1.465 2.722.702.771.641.86-1.314 1.932-1.54.845-1.594.92-1.715 2.369-.134 1.597-.931 3.148-1.956 3.801-.41.262-.549.773-.4 1.477.254 1.2-.174 2.903-.652 2.592-.609-.397-1.533 1.698-1.22 2.766.235.798.107 1.295-.49 1.905-.483.493-.781 1.207-.74 1.775.036.523-.09 1.202-.282 1.51-.193.308-.244.9-.116 1.315.13.415.022 1.081-.238 1.48-.26.4-.29 1.119-.067 1.599.294.632.206 1.059-.32 1.546-.48.445-.635.955-.46 1.506.146.458.374 1.389.506 2.068 1.104 5.692 1.38 6.836 1.707 7.062.206.142.525.677.709 1.187.184.51 1.024 1.393 1.867 1.96.843.568 1.755 1.342 2.025 1.72.445.623 1.182.993 4.212 2.117.536.2 1.384.233 1.886.075.501-.157 1.264-.21 1.695-.118.43.093 1.061-.085 1.401-.394.34-.309.735-.486.878-.393.142.092.75-.17 1.352-.581 1.494-1.025 1.739-.954 2.582.747.987 1.99 3.486 3.049 7.116 3.017 2.996-.026 5.15-.836 8.514-3.203 3.104-2.184 6.435-7.146 7.402-11.027l.637-2.56 1.722-1.035c1.994-1.199 5.49-5.14 6.408-7.226 1.18-2.68 3.007-10.114 2.886-11.742a28.372 28.372 0 0 1-.012-3.276l.108-1.655 1.849.635c1.803.62 6.745 1.21 8.38 1.002 4.017-.512 6.166-1.26 9.107-3.17 1.867-1.21 2.316-1.746 5.117-6.1 2.844-4.42 3.107-4.98 3.568-7.592.273-1.551.424-3.303.335-3.893-.267-1.773-.009-3.153.631-3.369.908-.306 4.684-3.367 6.977-5.656 7.41-7.396 10.641-13.246 14.166-25.65.319-1.123.782-2.53 1.03-3.129.418-1.011.483-1.027.921-.23.393.715.532.764.838.295.29-.446.412-.415.587.147.153.494.36.644.679.494.706-.332.898.493.32 1.38-.729 1.12.041 2.027.981 1.155.406-.376.744-.91.75-1.187.006-.277.174-.399.372-.27a.437.437 0 0 1 .118.606c-.133.204-.189.958-.125 1.677.065.718-.118 1.667-.406 2.109-.671 1.03.196 1.635 1.211.844.685-.532.702-.46.174.713-.413.916-.41 1.474.008 1.875.813.778.752 1.521-.202 2.478-.88.88-.448 1.535.84 1.273.569-.116.556.04-.065.804-.424.522-.97.959-1.211.971-.873.045-.44 1.157.674 1.734 1.093.566 1.116.723.247 1.701-.15.169-.502.158-.782-.025-.28-.182-.597-.198-.704-.034-.42.646.334 1.826 1.555 2.432.895.444 1.195.773.992 1.085-.204.313-.515.208-1.032-.35-.675-.729-.748-.717-.82.125-.094 1.085.946 2.333 2.343 2.814.733.252.9.475.648.863-.188.287-.04.813.328 1.167.413.4.171.347-.636-.138-1.36-.817-1.756-.703-1.515.433.178.846 2.52 2.405 3.16 2.104.334-.158.473-.035.462.409-.009.375-.246.628-.581.62-.434-.01-.531.152-.418.69.12.566.423.76 1.536.98 2.67.528 2.844.635 2.326 1.431-.676 1.038.593 1.49 1.575.561l.756-.715-.308.94c-.397 1.21.567 1.479 1.463.406.445-.533.804-.656 1.025-.35.412.569 1.083.32 1.099-.406.014-.69-2.03-4.371-2.653-4.777-.854-.556-2.495-9.873-2.983-16.938-.675-9.768-1.77-13.871-4.698-17.597-1.399-1.78-2.192-2.432-4.581-3.765l-2.89-1.612 1.273-3.98c1.146-3.58 1.56-4.388 4.129-8.047 3.162-4.505 4.153-5.292 5.822-4.625.735.293 1.716.18 2.91-.338 1.5-.65 1.927-1.047 2.553-2.373.436-.924.955-1.588 1.236-1.581.266.006.575-.32.687-.726.125-.45.457-.682.854-.597.357.076.851-.172 1.099-.551.247-.38.598-.593.78-.475.182.119.866-.088 1.521-.46.655-.372 1.416-.53 1.692-.35.275.18.696.025.936-.342.307-.471.555-.504.84-.111.308.426.497.356.798-.297.216-.47.627-.796.912-.723.33.083.304.461-.069 1.034-.441.678-.42.969.085 1.17.53.21.888-.074 1.695-1.35 1.019-1.61 1.468-1.729 2.015-.532.171.373-.011.904-.475 1.387-.964 1.002-.667 1.63.67 1.416 1.263-.201 1.997-1.223 1.947-2.708-.036-1.064-.004-1.078 1.01-.417.811.528.993.926.81 1.771-.154.705-.001 1.187.43 1.364.912.374 1.955-.93 1.753-2.193-.16-1-.128-1.011.907-.337.916.596.991.82.518 1.547-.304.467-.412.94-.24 1.052 1.58 1.03 3.164-.654 2.488-2.645l-.414-1.22 1.003.345a2.384 2.384 0 0 1 1.406 1.347c.222.551.522 1.08.667 1.174.509.331.926-.857.691-1.969-.28-1.326.447-1.028.805.33.366 1.389 1.312 1.238 1.308-.208-.004-1.475.594-1.156.649.346l.04 1.115.72-.62c.764-.656 1.288-.565 1.269.222-.02.874.621.903 1.174.054.395-.605.652-.692.928-.31.261.36.522.312.823-.15.711-1.092-.72-2.85-4.315-5.3-2.734-1.863-3.745-2.33-6.925-3.196-7.15-1.95-17.58-.927-24.698 2.42-7.688 3.616-14.67 9.726-18.05 15.796-1.554 2.79-4.3 9.282-5.373 12.704-.203.646-.62.747-2.127.515-1.031-.16-3.469.058-5.417.483-8.331 1.817-15.69 9.215-19.154 19.258-.763 2.212-1.366 4.58-1.34 5.261.025.682-.035 2.493-.135 4.024-.243 3.743.01 7.3.733 10.36l.6 2.534-2.696.57c-3.526.744-6.47.058-10.218-2.383-1.716-1.118-2.976-2.197-3.367-2.886-.802-1.413-5.186-6.187-5.805-6.322-.26-.056-.744-.468-1.075-.915-.546-.737-.493-.93.578-2.093.65-.704 2.52-2.02 4.158-2.922 1.638-.903 4.221-2.707 5.74-4.008 2.396-2.05 3.019-2.81 4.68-5.713 2.103-3.674 3.669-8.538 4.149-12.884.156-1.42.396-2.753.533-2.963.137-.21.682.486 1.213 1.547.765 1.53 1.241 2.043 2.309 2.484 1.86.77 4.737.128 6.312-1.407.7-.682 1.41-1.269 1.58-1.305.513-.108.589-2.512.122-3.89l-.44-1.294 1.96-1.748c2.25-2.004 4.83-4.01 5.502-4.278.978-.39 4.245-4.326 6.629-7.987l2.493-3.829 2.53-.357c4.626-.654 8.736-1.638 10.04-2.404.71-.416 1.948-1.565 2.752-2.552 1.37-1.684 8.506-11.236 9.767-13.075.714-1.04 6.7-8.337 9.054-11.034 9.971-11.428 13.845-17.336 16.556-25.254.894-2.61 1.683-5.362 1.753-6.115.07-.753.255-1.567.412-1.81.157-.244.39-1.29.516-2.325.128-1.035.527-2.606.889-3.491l.657-1.61 1.32 1.143c1.112.962 1.598 1.123 3.07 1.013.961-.071 1.913-.023 2.114.109.617.401 3.519-.116 5.753-1.026l2.119-.862 3.207-4.925c3.005-4.614 3.228-5.08 3.533-7.373.18-1.347.373-2.744.432-3.106.409-2.545-.675-9.824-1.718-11.54-1.436-2.361-2.999-7.424-3.46-11.21-.263-2.15-.406-4.018-.32-4.153.172-.265.289-5.848.146-6.958-.094-.731 1.399-6.718 2.4-9.63.617-1.79.236-5.205-.642-5.76-.254-.162-1.406.331-2.56 1.095zm-69.828 165.678a59.312 59.312 0 0 1-1.117 4.472 259.833 259.833 0 0 0-1.012 3.453c-.189.675-1.355 3.146-2.591 5.492-2.64 5.013-6.293 9.774-9.568 12.473-3.32 2.738-3.332 2.736-3.845-.546-.43-2.755-.572-7.501-.24-8.05.087-.146.283-1.106.435-2.135.357-2.41 2.293-7.274 3.847-9.66 2.836-4.355 6.821-7.202 10.996-7.854 1.498-.235 2.909-.306 3.135-.16.225.148.208 1.28-.04 2.515zm-24.046 42.042c.009 3.245-2.294 7.062-5.453 9.035-1.755 1.097-5.696 2.07-7.953 1.963-2.54-.12-6.848-1.548-7.965-2.641-1.377-1.348-2.175-4.486-1.862-7.325.159-1.441.186-2.838.061-3.104-.32-.681-.233-4.785.114-5.318.219-.335 1.138.108 3.774 1.819 3.407 2.211 8.214 4.23 10.64 4.467 1.678.164 7.396-.057 7.726-.298.553-.403.915.149.918 1.402zm-39.778.086c1.24 4.579 1.388 6.114.886 9.211-.181 1.112-.227 2.238-.103 2.501.125.264.083.7-.093.97-.175.27-.249.967-.164 1.552.086.584.234 1.777.33 2.651.185 1.695.93 5.212 2.158 10.19.447 1.81.612 3.886.403 5.077-.193 1.108-.207 2.196-.03 2.42.177.222-.023 1.163-.445 2.091-.728 1.6-.853 1.693-2.425 1.787-.911.055-1.92.308-2.243.563-.322.255-1.006.32-1.519.143-.513-.177-1.375-.204-1.917-.061-.707.186-1.225.025-1.837-.575-.49-.48-1.183-.795-1.633-.743-.873.101-3.014-1.695-2.663-2.235.117-.178.004-.46-.25-.625-.254-.165-.497-.879-.54-1.585-.162-2.672-.701-5.027-1.23-5.372-1.377-.897-2.523 3.866-1.762 7.322.544 2.473 3.272 7.689 4.407 8.428.629.41 8.512 1.37 9.815 1.195 1.28-.172 1.388.438.43 2.443-1.755 3.675-2.274 4.475-3.093 4.769-.46.165-1.067.641-1.346 1.058-.28.416-.667.654-.86.529-.192-.126-.619-.023-.947.229-1.231.94-2.387.985-3.683.141-1.566-1.02-1.634-2.044-.208-3.146 1.377-1.065 1.1-1.506-1.021-1.623-1.777-.098-1.823-.122-1.402-.768.246-.378.125-1.639-.279-2.914-.482-1.518-.542-2.51-.187-3.056.368-.565.334-.934-.113-1.225-1.012-.659-1.934.567-2.419 3.216-.36 1.964-.688 2.692-1.752 3.88-1.621 1.809-4.09 2.52-5.518 1.589-1.118-.728-2.062-2.61-1.637-3.263.16-.246.08-1.089-.178-1.874-.257-.786-.363-2.34-.235-3.453.128-1.114.176-2.172.105-2.35-.07-.18.119-2.124.42-4.322.549-3.988.555-4.004 3.258-8.279 1.917-3.032 2.991-4.429 3.679-4.783.732-.377 1.025-.78 1.194-1.64.368-1.876 4.792-8.823 7.546-11.851 2.409-2.648 5.55-7.577 7.19-11.28l.665-1.502.481 1.76c.265.969.61 2.233.765 2.81zm-53.986-28.519c.094.593-.26 2.042-.79 3.22-.529 1.18-.862 2.393-.74 2.698.126.318-.57-.043-1.64-.85-2.22-1.677-2.736-3.052-1.729-4.599.7-1.075 3.6-2.264 4.353-1.784.206.13.451.723.546 1.315zm63.52 44.272c.371.24.617 2.385.406 3.534-.099.538.091 1.404.422 1.925.626.985.566 1.485-.177 1.468-.558-.013-1.625-4.355-1.661-6.76-.033-2.184.143-2.645.497-1.302.14.531.372 1.042.514 1.135zm-42.89-18.21c-1.85 2.189-6.11 8.876-7.463 11.712-.475.997-.756 2.265-.631 2.854.123.583-.017 1.43-.311 1.882-.825 1.267-.892 2.153-.232 3.057.43.591.431 1.1 0 1.778-.331.522-.57 1.401-.532 1.953.045.64-.231 1.301-.761 1.822-.51.501-.793 1.145-.733 1.662.064.551-.55 1.854-1.767 3.754-1.81 2.825-1.914 2.919-3.522 3.18-2.375.387-3.655-.549-3.93-2.873-.12-1.01-.42-1.967-.667-2.128-.248-.161-.292-.537-.098-.835.194-.297.099-.82-.211-1.161-.31-.341-.442-.808-.292-1.037.15-.23.146-.893-.008-1.475-.153-.581-.181-1.207-.062-1.39.12-.182.656-2.19 1.192-4.46 1.107-4.685 3.755-9.9 4.903-9.655.368.08.92-.37 1.444-1.174.466-.717 1.062-1.298 1.324-1.291.262.006.858-.575 1.325-1.291.58-.89 1.067-1.256 1.539-1.155.526.113.83-.164 1.27-1.16.317-.719.72-1.215.894-1.101.174.113 1.08-.266 2.011-.843.932-.576 2.028-1.087 2.435-1.134.406-.047.93-.378 1.162-.734.232-.357.708-.587 1.059-.512.35.075.767-.064.926-.309.252-.387 1.258-.433 1.38-.063.024.072-.716 1.03-1.644 2.128z" fill="#0a0"/><g color="#000"><path style="isolation:auto;mix-blend-mode:normal;marker:none" d="M162.215 297.866a8.896 8.896 0 0 1-8.896 8.896 8.896 8.896 0 0 1-8.896-8.896 8.896 8.896 0 0 1 8.896-8.896 8.896 8.896 0 0 1 8.896 8.896z" overflow="visible" fill="#fff"/><path d="M154.83 293.22a1.42 1.754 0 0 1-1.42 1.754 1.42 1.754 0 0 1-1.42-1.753 1.42 1.754 0 0 1 1.42-1.754 1.42 1.754 0 0 1 1.42 1.754z" style="isolation:auto;mix-blend-mode:normal;marker:none" overflow="visible"/></g></svg>