<?xml version="1.0" encoding="UTF-8" standalone="no"?>
<svg
   xmlns:dc="http://purl.org/dc/elements/1.1/"
   xmlns:cc="http://creativecommons.org/ns#"
   xmlns:rdf="http://www.w3.org/1999/02/22-rdf-syntax-ns#"
   xmlns:svg="http://www.w3.org/2000/svg"
   xmlns="http://www.w3.org/2000/svg"
   xmlns:xlink="http://www.w3.org/1999/xlink"
   xmlns:sodipodi="http://sodipodi.sourceforge.net/DTD/sodipodi-0.dtd"
   xmlns:inkscape="http://www.inkscape.org/namespaces/inkscape"
   width="1057.86"
   height="226.82373"
   version="1.1"
   id="svg24"
   sodipodi:docname="award.svg"
   inkscape:version="0.92.2 5c3e80d, 2017-08-06">
  <metadata
     id="metadata28">
    <rdf:RDF>
      <cc:Work
         rdf:about="">
        <dc:format>image/svg+xml</dc:format>
        <dc:type
           rdf:resource="http://purl.org/dc/dcmitype/StillImage" />
        <dc:title></dc:title>
      </cc:Work>
    </rdf:RDF>
  </metadata>
  <sodipodi:namedview
     pagecolor="#ffffff"
     bordercolor="#666666"
     borderopacity="1"
     objecttolerance="10"
     gridtolerance="10"
     guidetolerance="10"
     inkscape:pageopacity="0"
     inkscape:pageshadow="2"
     inkscape:window-width="1550"
     inkscape:window-height="950"
     id="namedview26"
     showgrid="false"
     inkscape:pagecheckerboard="true"
     fit-margin-top="0"
     fit-margin-left="0"
     fit-margin-right="0"
     fit-margin-bottom="0"
     inkscape:zoom="0.40523859"
     inkscape:cx="396.909"
     inkscape:cy="113.41187"
     inkscape:window-x="0"
     inkscape:window-y="0"
     inkscape:window-maximized="0"
     inkscape:current-layer="svg24" />
  <defs
     id="defs8">
    <linearGradient
       id="linearGradient855"
       inkscape:collect="always">
      <stop
         id="stop851"
         offset="0"
         style="stop-color:#e61c82;stop-opacity:1" />
      <stop
         id="stop853"
         offset="1"
         style="stop-color:#8b1d80;stop-opacity:1" />
    </linearGradient>
    <linearGradient
       inkscape:collect="always"
       id="linearGradient845">
      <stop
         style="stop-color:#e61c82;stop-opacity:1"
         offset="0"
         id="stop841" />
      <stop
         style="stop-color:#8b1d80;stop-opacity:1"
         offset="1"
         id="stop843" />
    </linearGradient>
    <linearGradient
       id="a">
      <stop
         offset="0"
         stop-color="#e61c82"
         id="stop2" />
      <stop
         offset="1"
         stop-color="#8b1d80"
         id="stop4" />
    </linearGradient>
    <linearGradient
       xlink:href="#a"
       id="b"
       y1="139.86"
       x2="853.81799"
       y2="139.86"
       gradientUnits="userSpaceOnUse" />
    <linearGradient
       inkscape:collect="always"
       xlink:href="#linearGradient845"
       id="linearGradient847"
       x1="188.52713"
       y1="149.6942"
       x2="824.0509"
       y2="149.6942"
       gradientUnits="userSpaceOnUse" />
    <linearGradient
       inkscape:collect="always"
       xlink:href="#linearGradient855"
       id="linearGradient849"
       x1="30"
       y1="153.873"
       x2="1088.2478"
       y2="153.873"
       gradientUnits="userSpaceOnUse" />
    <linearGradient
       inkscape:collect="always"
       xlink:href="#linearGradient855"
       id="linearGradient857"
       gradientUnits="userSpaceOnUse"
       x1="30"
       y1="153.873"
       x2="1088.2478"
       y2="153.873" />
    <linearGradient
       inkscape:collect="always"
       xlink:href="#linearGradient855"
       id="linearGradient859"
       gradientUnits="userSpaceOnUse"
       x1="30"
       y1="153.873"
       x2="1088.2478"
       y2="153.873" />
    <linearGradient
       inkscape:collect="always"
       xlink:href="#linearGradient855"
       id="linearGradient861"
       gradientUnits="userSpaceOnUse"
       x1="30"
       y1="153.873"
       x2="1088.2478"
       y2="153.873" />
    <linearGradient
       inkscape:collect="always"
       xlink:href="#linearGradient855"
       id="linearGradient863"
       gradientUnits="userSpaceOnUse"
       x1="30"
       y1="153.873"
       x2="1088.2478"
       y2="153.873" />
    <linearGradient
       inkscape:collect="always"
       xlink:href="#linearGradient845"
       id="linearGradient865"
       gradientUnits="userSpaceOnUse"
       x1="188.52713"
       y1="149.6942"
       x2="824.0509"
       y2="149.6942" />
  </defs>
  <g
     id="g839"
     transform="translate(-30,-30.000268)"
     style="fill:url(#linearGradient849);fill-opacity:1">
    <path
       id="path12"
       d="m 86.319,188.622 c 0,-1.48 0.155,-1.595 2.548,-1.882 4.422,-0.53 7.339,-1.388 8.447,-2.484 1.057,-1.044 1.073,-1.771 1.073,-49.547 0,-48.453 0,-48.488 -1.129,-50.002 -1.68,-2.253 -4.035,-3.405 -7.82,-3.822 l -3.387,-0.374 v -3.746 l 18.773,-1.178 c 10.325,-0.649 19.316,-1.194 19.98,-1.212 1.164,-0.031 1.206,0.137 1.206,4.795 0,2.655 0.12,4.828 0.266,4.828 0.146,0 1.758,-1.203 3.582,-2.674 4.09,-3.295 10.828,-6.677 15.461,-7.76 7.277,-1.7 15.953,-0.535 22.677,3.045 12.347,6.575 19.509,23.472 17.615,41.559 -1.614,15.412 -7.403,25.2 -19.1,32.288 -6.537,3.962 -19.253,7.024 -29.172,7.024 h -4.356 v -3.6 l 3.539,-0.33 c 9.085,-0.848 15.549,-6.983 18.18,-17.256 2.305,-8.997 2.498,-28.793 0.36,-36.832 -2.775,-10.432 -7.332,-14.928 -15.128,-14.928 -3.902,0 -8.295,1.267 -11.427,3.297 l -1.947,1.262 -0.007,46.458 c -0.006,45.106 0.023,46.496 1.03,47.775 1.252,1.593 4.158,2.527 9.013,2.898 6.839,0.523 7.114,0.615 7.114,2.39 v 1.585 H 86.318 Z m 128.124,-30.86 c -1.66,-0.42 -5.332,-1.65 -8.16,-2.731 -5.853,-2.24 -6.611,-2.198 -10.24,0.572 -1.69,1.29 -3.027,1.877 -4.273,1.877 h -1.813 l 2.89,-14.038 c 1.59,-7.721 2.891,-14.133 2.891,-14.248 0,-0.115 0.753,-0.134 1.672,-0.041 1.608,0.161 1.722,0.343 2.97,4.727 4.058,14.246 10.562,20.572 21.908,21.309 7.695,0.5 13.695,-1.84 17.083,-6.66 1.247,-1.774 1.612,-2.96 1.824,-5.934 0.472,-6.583 -2.402,-10.274 -11.351,-14.583 l -12.732,-6.124 c -8.834,-4.248 -12.897,-7.632 -15.126,-12.6 -5.226,-11.645 0.813,-25.27 14.163,-31.952 6.751,-3.38 11.397,-4.339 20.89,-4.313 11.171,0.03 18.616,2.237 24.233,7.18 6.265,5.516 6.164,14.693 -0.201,18.27 -4.226,2.376 -10.125,1.89 -13.548,-1.116 -3.452,-3.031 -3.737,-7.349 -0.79,-11.995 0.863,-1.361 1.57,-2.932 1.57,-3.49 0,-3.317 -8.748,-6.436 -15.787,-5.63 -9.612,1.101 -15.84,6.524 -15.854,13.807 -0.014,6.842 4.383,11.066 17.453,16.766 16.912,7.376 21.573,11.271 23.663,19.772 2.395,9.742 -2.836,21.187 -12.226,26.75 -6.128,3.63 -10.824,4.804 -20.045,5.01 -5.718,0.128 -8.92,-0.041 -11.064,-0.584 z m 78.16,-0.329 c -11.93,-2.93 -19.949,-10.625 -22.654,-21.737 -1.144,-4.698 -1.133,-14.105 0.022,-19.401 2.27,-10.41 7.417,-19.956 14.804,-27.46 9.857,-10.012 21.42,-15.214 35.4,-15.925 12.957,-0.659 21.563,2.34 26.112,9.1 3.271,4.86 3.563,12.137 0.708,17.694 -2.76,5.37 -9.329,10.234 -17.828,13.197 -8.122,2.832 -21.71,4.888 -32.31,4.888 h -4.968 l -0.333,2.011 c -0.505,3.055 -0.401,9.656 0.211,13.429 2.113,13.02 10.528,19 24.323,17.286 2.454,-0.305 5.765,-0.938 7.358,-1.406 4.4,-1.294 10.617,-4.721 14.452,-7.967 3.177,-2.69 3.513,-2.849 4.373,-2.07 1.203,1.088 0.8,1.827 -3.164,5.808 -6.14,6.166 -14.884,10.775 -24.02,12.66 -6.589,1.36 -16.71,1.312 -22.486,-0.107 z m 14.903,-44.978 c 14.762,-3.821 23.49,-13.893 22.765,-26.272 -0.282,-4.823 -1.673,-7.485 -4.731,-9.06 -4.644,-2.393 -11.13,-0.503 -17.033,4.962 -6.644,6.15 -13.088,18.426 -15.617,29.748 l -0.527,2.358 5.459,-0.321 c 3.002,-0.177 7.36,-0.814 9.684,-1.415 z M 30,155.677 v -1.804 l 4.157,-0.376 c 4.25,-0.385 7.913,-1.631 9.13,-3.106 0.54,-0.655 0.653,-7.576 0.537,-33.031 L 43.677,85.156 42.392,83.788 c -1.51,-1.607 -4.005,-2.519 -8.097,-2.96 l -2.954,-0.317 v -3.754 l 19.041,-1.174 c 10.473,-0.645 19.705,-1.188 20.516,-1.206 l 1.475,-0.034 v 74.905 l 1.207,1.099 c 0.664,0.604 1.69,1.344 2.28,1.644 1.56,0.794 8.235,1.735 12.305,1.735 h 3.517 v 3.754 H 30 Z M 52.637,61.559 c -3.534,-1.261 -6.308,-3.444 -8.52,-6.704 -5.353,-7.887 -2.344,-18.629 6.533,-23.324 3.755,-1.985 10.025,-2.048 13.904,-0.139 3.362,1.654 6.206,4.499 7.86,7.86 1.91,3.88 1.847,10.15 -0.139,13.904 -3.91,7.393 -12.35,11.005 -19.638,8.403 z"
       inkscape:connector-curvature="0"
       style="fill:url(#linearGradient857);fill-opacity:1" />
    <g
       id="g18"
       word-spacing="0"
       letter-spacing="0"
       font-size="40"
       font-weight="400"
       style="font-weight:400;font-size:40px;line-height:1.25;font-family:sans-serif;text-align:center;letter-spacing:0;word-spacing:0;text-anchor:middle;fill:url(#linearGradient863);fill-opacity:1"
       aria-label="Freelancer Awards 2017">
      <path
         id="path14"
         style="font-family:Merriweather;-inkscape-font-specification:Merriweather;text-align:center;fill:url(#linearGradient859);fill-opacity:1"
         d="m 155.3,171.462 -3.44,-0.48 v -2 h 21.4 l 0.4,6.8 h -2.6 l -1.2,-4.44 -10.28,-0.28 v 11.6 l 7.24,-0.12 0.68,-3.32 h 2.12 v 9.36 h -2.08 l -0.72,-3.48 -7.24,-0.16 v 11.4 l 6.24,0.4 v 1.96 H 152.1 v -1.96 l 3.2,-0.4 z m 21.486,25.28 3,-0.24 v -16.92 l -2.88,-0.72 v -2.16 l 5.52,-0.72 h 0.08 l 0.88,0.72 v 0.72 l -0.12,3.12 h 0.12 q 0.4,-0.68 1.44,-1.76 1.04,-1.08 2.68,-1.96 1.64,-0.92 3.56,-0.92 0.8,0 1.32,0.2 v 4.48 q -0.28,-0.2 -0.92,-0.36 -0.6,-0.2 -1.36,-0.2 -3.32,0 -6.16,2.04 v 14.4 l 5.08,0.32 v 1.92 h -12.24 z m 28.119,2.4 q -4.84,0 -7.4,-3.16 -2.52,-3.16 -2.52,-8.44 0,-3.48 1.32,-6.12 1.32,-2.64 3.68,-4.08 2.4,-1.44 5.44,-1.44 3.72,0 5.76,2.08 2.08,2.04 2.2,5.88 0,2.44 -0.28,3.72 h -13.76 q 0.08,3.96 1.84,6.4 1.76,2.4 5,2.4 1.6,0 3.32,-0.56 1.76,-0.6 2.72,-1.4 l 0.76,1.76 q -1.16,1.2 -3.44,2.08 -2.28,0.88 -4.64,0.88 z m 4.08,-13.68 q 0.12,-0.84 0.12,-1.72 -0.04,-2.6 -1.12,-4.08 -1.04,-1.52 -3.32,-1.52 -2.32,0 -3.72,1.68 -1.36,1.68 -1.56,5.64 z m 17.717,13.68 q -4.84,0 -7.4,-3.16 -2.52,-3.16 -2.52,-8.44 0,-3.48 1.32,-6.12 1.32,-2.64 3.68,-4.08 2.4,-1.44 5.44,-1.44 3.72,0 5.76,2.08 2.08,2.04 2.2,5.88 0,2.44 -0.28,3.72 h -13.76 q 0.08,3.96 1.84,6.4 1.76,2.4 5,2.4 1.6,0 3.32,-0.56 1.76,-0.6 2.72,-1.4 l 0.76,1.76 q -1.16,1.2 -3.44,2.08 -2.28,0.88 -4.64,0.88 z m 4.08,-13.68 q 0.12,-0.84 0.12,-1.72 -0.04,-2.6 -1.12,-4.08 -1.04,-1.52 -3.32,-1.52 -2.32,0 -3.72,1.68 -1.36,1.68 -1.56,5.64 z m 10.798,-16.6 -3.24,-0.44 v -1.72 l 6.44,-0.76 h 0.08 l 0.88,0.6 v 29.88 l 3.4,0.32 v 1.96 h -10.8 v -1.96 l 3.24,-0.36 z m 10.439,23.84 q 0,-3.76 3.76,-5.52 3.76,-1.8 9.52,-1.92 v -1.12 q 0,-1.88 -0.4,-2.96 -0.4,-1.08 -1.4,-1.56 -0.96,-0.52 -2.76,-0.52 -2.04,0 -3.68,0.6 -1.6,0.56 -3.2,1.4 l -1,-2.08 q 0.52,-0.44 1.92,-1.16 1.4,-0.72 3.24,-1.28 1.84,-0.56 3.68,-0.56 2.84,0 4.48,0.8 1.68,0.76 2.4,2.48 0.72,1.72 0.72,4.6 v 12.84 h 2.36 v 1.76 q -0.8,0.2 -2.04,0.4 -1.2,0.2 -2.12,0.2 -1.12,0 -1.52,-0.36 -0.4,-0.32 -0.4,-1.48 v -1.32 q -1.2,1.2 -2.96,2.2 -1.72,1 -3.92,1 -2.88,0 -4.8,-1.64 -1.88,-1.68 -1.88,-4.8 z m 8.4,3.72 q 1.04,0 2.4,-0.64 1.36,-0.64 2.48,-1.52 v -6.88 q -4.36,0 -6.6,1.36 -2.2,1.32 -2.2,3.48 0,2.16 1.04,3.2 1.08,1 2.88,1 z m 16.421,-16.84 -2.88,-0.72 v -2.16 l 5.72,-0.72 h 0.12 l 0.84,0.72 v 1.68 l -0.04,0.96 q 1.44,-1.28 3.8,-2.32 2.36,-1.04 4.52,-1.04 2.52,0 3.88,0.96 1.4,0.96 1.96,2.96 0.56,1.96 0.56,5.32 v 11.2 l 2.8,0.28 v 2 h -9.48 v -1.96 l 2.48,-0.32 v -11.24 q 0,-2.36 -0.32,-3.68 -0.32,-1.36 -1.2,-2 -0.88,-0.68 -2.56,-0.68 -1.44,0 -3.08,0.72 -1.64,0.72 -2.92,1.68 v 15.16 l 2.72,0.36 v 1.96 h -9.44 v -1.96 l 2.52,-0.36 z m 23.683,8.16 q 0,-3.32 1.28,-6 1.32,-2.68 3.84,-4.24 2.56,-1.6 6.12,-1.6 1.72,0 2.96,0.32 1.24,0.32 2.96,0.88 l -0.16,6.16 h -2.6 l -0.88,-4.08 q -0.24,-1.12 -3.04,-1.12 -2.8,0 -4.44,2.28 -1.6,2.24 -1.6,6.4 0,4.72 1.8,7.2 1.84,2.44 4.76,2.44 1.68,0 3.16,-0.52 1.52,-0.52 2.6,-1.24 l 0.76,1.6 q -1.08,1.12 -3.2,2.04 -2.08,0.88 -4.24,0.88 -3.28,0 -5.56,-1.48 -2.24,-1.48 -3.4,-4.04 -1.12,-2.6 -1.12,-5.88 z m 30.867,11.4 q -4.84,0 -7.4,-3.16 -2.52,-3.16 -2.52,-8.44 0,-3.48 1.32,-6.12 1.32,-2.64 3.68,-4.08 2.4,-1.44 5.44,-1.44 3.72,0 5.76,2.08 2.08,2.04 2.2,5.88 0,2.44 -0.28,3.72 h -13.76 q 0.08,3.96 1.84,6.4 1.76,2.4 5,2.4 1.6,0 3.32,-0.56 1.76,-0.6 2.72,-1.4 l 0.76,1.76 q -1.16,1.2 -3.44,2.08 -2.28,0.88 -4.64,0.88 z m 4.08,-13.68 q 0.12,-0.84 0.12,-1.72 -0.04,-2.6 -1.12,-4.08 -1.04,-1.52 -3.32,-1.52 -2.32,0 -3.72,1.68 -1.36,1.68 -1.56,5.64 z m 7.957,11.28 3,-0.24 v -16.92 l -2.88,-0.72 v -2.16 l 5.52,-0.72 h 0.08 l 0.88,0.72 v 0.72 l -0.12,3.12 h 0.12 q 0.4,-0.68 1.44,-1.76 1.04,-1.08 2.68,-1.96 1.64,-0.92 3.56,-0.92 0.8,0 1.32,0.2 v 4.48 q -0.28,-0.2 -0.92,-0.36 -0.6,-0.2 -1.36,-0.2 -3.32,0 -6.16,2.04 v 14.4 l 5.08,0.32 v 1.92 h -12.24 z m -201.374,22.922 h 4.4 l 9.72,27.6 2.48,0.4 v 1.96 h -10.56 v -1.96 l 3.32,-0.4 -1.88,-5.92 h -11.68 l -1.88,5.92 3.44,0.4 v 1.96 h -9.48 v -1.96 l 2.48,-0.4 z m 2.52,6.4 -1,-3.52 -0.96,3.6 -4.04,12.84 h 10.2 z m 13.257,1.36 h 9.32 v 1.88 l -3.04,0.48 3.32,11.76 1.16,5.08 1.16,-5.12 3.84,-14.08 h 3.92 l 3.96,14.08 1.16,5.16 1.28,-5.12 3.24,-11.72 -3.04,-0.52 v -1.88 h 8.12 v 1.88 l -2.12,0.52 -6.2,20.12 h -3.76 l -4.24,-14.12 -1.04,-4.96 -0.84,4.96 -4.04,14.12 h -3.72 l -6.4,-20.16 -2.04,-0.48 z m 35.673,16.2 q 0,-3.76 3.76,-5.52 3.76,-1.8 9.52,-1.92 v -1.12 q 0,-1.88 -0.4,-2.96 -0.4,-1.08 -1.4,-1.56 -0.96,-0.52 -2.76,-0.52 -2.04,0 -3.68,0.6 -1.6,0.56 -3.2,1.4 l -1,-2.08 q 0.52,-0.44 1.92,-1.16 1.4,-0.72 3.24,-1.28 1.84,-0.56 3.68,-0.56 2.84,0 4.48,0.8 1.68,0.76 2.4,2.48 0.72,1.72 0.72,4.6 v 12.84 h 2.36 v 1.76 q -0.8,0.2 -2.04,0.4 -1.2,0.2 -2.12,0.2 -1.12,0 -1.52,-0.36 -0.4,-0.32 -0.4,-1.48 v -1.32 q -1.2,1.2 -2.96,2.2 -1.72,1 -3.92,1 -2.88,0 -4.8,-1.64 -1.88,-1.68 -1.88,-4.8 z m 8.4,3.72 q 1.04,0 2.4,-0.64 1.36,-0.64 2.48,-1.52 v -6.88 q -4.36,0 -6.6,1.36 -2.2,1.32 -2.2,3.48 0,2.16 1.04,3.2 1.08,1 2.88,1 z m 14.102,0.32 3,-0.24 v -16.92 l -2.88,-0.72 v -2.16 l 5.52,-0.72 h 0.08 l 0.88,0.72 v 0.72 l -0.12,3.12 h 0.12 q 0.4,-0.68 1.44,-1.76 1.04,-1.08 2.68,-1.96 1.64,-0.92 3.56,-0.92 0.8,0 1.32,0.2 v 4.48 q -0.28,-0.2 -0.92,-0.36 -0.6,-0.2 -1.36,-0.2 -3.32,0 -6.16,2.04 v 14.4 l 5.08,0.32 v 1.92 h -12.24 z m 26.919,2.4 q -2.4,0 -4.4,-1.2 -2,-1.2 -3.2,-3.68 -1.16,-2.48 -1.16,-6.12 0,-3.4 1.4,-6.2 1.4,-2.8 4,-4.4 2.64,-1.64 6.2,-1.64 2.04,0 3.72,0.44 v -7.48 l -4.08,-0.48 v -1.72 l 7.2,-0.72 h 0.12 l 0.88,0.64 v 30.08 h 2.32 v 1.84 q -1.28,0.28 -2.24,0.44 -0.92,0.16 -1.96,0.16 -1.04,0 -1.48,-0.36 -0.44,-0.36 -0.44,-1.52 v -1.28 q -1.12,1.36 -2.96,2.28 -1.8,0.92 -3.92,0.92 z m 1.6,-2.84 q 1.56,0 2.92,-0.68 1.36,-0.72 2.04,-1.64 v -14.64 q -0.32,-0.48 -1.52,-0.84 -1.16,-0.4 -2.48,-0.4 -3.12,0 -5,2.4 -1.84,2.36 -1.84,7.32 0,4.32 1.64,6.4 1.64,2.08 4.24,2.08 z m 18.324,-0.8 q 0.4,0.6 1.68,1.08 1.32,0.48 2.76,0.48 2.28,0 3.36,-0.88 1.08,-0.88 1.08,-2.44 0,-1.08 -0.68,-1.88 -0.68,-0.8 -1.92,-1.4 -1.2,-0.64 -3.48,-1.52 -3.08,-1.16 -4.52,-2.76 -1.4,-1.64 -1.4,-4.28 0,-1.76 1.04,-3.08 1.08,-1.32 2.92,-2.04 1.88,-0.76 4.16,-0.76 1.84,0 3.2,0.28 1.4,0.28 2.24,0.56 0.84,0.28 1.12,0.36 v 4.96 h -2.44 l -0.8,-2.96 q -0.24,-0.48 -1.28,-0.8 -1.04,-0.36 -2.32,-0.36 -1.8,0 -2.92,0.8 -1.08,0.8 -1.08,2.16 0,1.2 0.56,2 0.6,0.76 1.48,1.24 0.88,0.48 2.4,1.12 l 0.8,0.32 q 2.24,0.88 3.64,1.68 1.4,0.8 2.32,2.12 0.96,1.28 0.96,3.16 0,2.96 -2.32,4.72 -2.28,1.76 -6.28,1.76 -1.96,0 -4.12,-0.52 -2.12,-0.56 -3.48,-1.12 v -5.12 h 2.6 z"
         inkscape:connector-curvature="0" />
      <path
         id="path16"
         font-weight="700"
         style="font-weight:700;text-align:center;fill:url(#linearGradient861);fill-opacity:1"
         d="m 288.535,247.464 q 5.56,-3.28 9.12,-7.24 3.56,-3.96 3.56,-7.64 0,-1.96 -1.24,-3.12 -1.2,-1.2 -3.4,-1.2 -2.08,0 -3.52,0.8 -1.4,0.76 -2.76,2 l -1.52,-2.2 q 0.8,-1 2.28,-2.04 1.52,-1.04 3.52,-1.72 2,-0.72 4.04,-0.72 2.92,0 4.88,1 2,1 2.96,2.64 0.96,1.64 0.96,3.64 0,3.84 -3.68,7.72 -3.68,3.88 -9.36,7.12 l 11.6,-1.08 1.52,-3.36 2.52,0.52 -1.16,7.04 h -19.48 z m 35.459,2.56 q -5.12,0 -7.84,-3.4 -2.68,-3.44 -2.68,-9.32 0,-4.16 1.56,-7.04 1.56,-2.92 4.12,-4.36 2.6,-1.48 5.76,-1.48 5.16,0 7.76,3.28 2.6,3.24 2.6,9.2 0,4.12 -1.52,7.12 -1.48,2.96 -4.04,4.48 -2.56,1.52 -5.72,1.52 z m 0.4,-2.4 q 2.52,0 3.68,-2.56 1.2,-2.6 1.2,-7.72 0,-5.44 -1.12,-7.96 -1.08,-2.56 -3.72,-2.56 -4.96,0 -4.96,10.04 0,5.36 1.16,8.08 1.2,2.68 3.76,2.68 z m 20.21,-17.6 q -0.68,0.24 -2.44,0.64 -1.76,0.36 -2.76,0.48 l -0.44,-2.8 q 2.16,-0.44 4.48,-1.56 2.36,-1.16 3.84,-2.4 h 0.04 l 3.16,0.44 v 22 l 4.56,0.44 v 2.36 h -15.24 v -2.36 l 4.8,-0.4 z m 17.16,25.2 q 4.04,-8.32 10.08,-23.24 l 1.56,-3.76 -10.6,0.16 -2.04,5.88 -3.36,-0.64 1,-8.88 h 19.08 l 1.04,1.32 -6.32,18.12 -4.44,12.64 z"
         inkscape:connector-curvature="0" />
    </g>
  </g>
  <g
     aria-label="Finalist | Inspire"
     style="font-weight:700;font-size:48px;line-height:1.25;font-family:Merriweather;text-align:center;letter-spacing:0;word-spacing:0;text-anchor:middle;fill:url(#linearGradient847);fill-opacity:1"
     font-weight="700"
     font-size="48"
     letter-spacing="0"
     word-spacing="0"
     id="g22"
     transform="matrix(1.6651585,0,0,1.6651585,-313.92756,-125.39184)">
    <path
       d="m 430.793,126.396 -3.936,-0.624 v -2.976 h 26.496 l 0.48,8.688 h -3.84 l -1.776,-5.28 -10.368,-0.528 v 13.584 l 7.152,-0.144 0.912,-4.224 h 3.072 v 12.192 h -3.024 l -0.96,-4.32 -7.152,-0.192 V 155.1 l 7.344,0.48 v 2.88 h -18.096 v -2.88 l 3.696,-0.48 z m 32.021,1.008 q -1.728,0 -2.736,-1.008 -1.008,-1.008 -1.008,-2.592 0,-1.824 1.152,-3.024 1.152,-1.2 3.072,-1.2 1.92,0 2.928,1.056 1.008,1.008 1.008,2.544 0,1.92 -1.152,3.072 -1.152,1.152 -3.216,1.152 z m -2.544,8.928 -3.408,-0.912 v -3.216 l 8.784,-1.056 h 0.096 l 1.344,0.96 v 23.088 l 3.216,0.384 v 2.88 H 456.91 v -2.88 l 3.36,-0.432 z m 16.207,0 -3.072,-0.864 v -3.312 l 7.968,-1.008 h 0.144 l 1.2,0.96 v 1.872 l -0.048,1.152 q 1.68,-1.584 4.368,-2.736 2.688,-1.152 5.424,-1.152 2.928,0 4.56,1.104 1.68,1.056 2.4,3.36 0.72,2.304 0.72,6.24 v 13.248 l 2.928,0.384 v 2.88 h -12.384 v -2.88 l 2.592,-0.384 v -13.248 q 0,-2.496 -0.336,-3.888 -0.336,-1.44 -1.248,-2.064 -0.864,-0.672 -2.496,-0.672 -2.736,0 -5.856,2.352 v 17.472 l 2.88,0.432 v 2.88 h -12.528 v -2.88 l 2.784,-0.432 z m 29.503,14.64 q 0,-4.368 4.368,-6.576 4.416,-2.208 11.376,-2.256 v -1.104 q 0,-1.968 -0.432,-3.072 -0.384,-1.104 -1.488,-1.632 -1.056,-0.576 -3.12,-0.576 -2.352,0 -4.224,0.624 -1.872,0.576 -3.888,1.536 l -1.488,-3.072 q 0.72,-0.624 2.4,-1.488 1.728,-0.864 4.08,-1.488 2.352,-0.672 4.848,-0.672 3.696,0 5.76,0.96 2.112,0.96 3.024,3.072 0.912,2.112 0.912,5.664 v 14.688 h 2.592 v 2.688 q -0.96,0.24 -2.736,0.48 -1.776,0.24 -3.12,0.24 -1.632,0 -2.208,-0.48 -0.528,-0.48 -0.528,-1.968 v -1.296 q -1.296,1.44 -3.36,2.592 -2.064,1.152 -4.656,1.152 -2.208,0 -4.08,-0.912 -1.824,-0.96 -2.928,-2.736 -1.104,-1.824 -1.104,-4.368 z m 11.184,4.032 q 1.008,0 2.304,-0.576 1.296,-0.624 2.256,-1.488 v -7.872 q -4.32,0 -6.48,1.488 -2.112,1.44 -2.112,3.744 0,2.304 1.056,3.504 1.104,1.2 2.976,1.2 z m 19.316,-31.632 -3.552,-0.624 v -2.592 l 8.88,-1.056 h 0.096 l 1.296,0.912 v 35.184 l 3.504,0.384 v 2.88 H 533.12 v -2.88 l 3.36,-0.432 z m 19.24,4.032 q -1.728,0 -2.736,-1.008 -1.008,-1.008 -1.008,-2.592 0,-1.824 1.152,-3.024 1.152,-1.2 3.072,-1.2 1.92,0 2.928,1.056 1.008,1.008 1.008,2.544 0,1.92 -1.152,3.072 -1.152,1.152 -3.216,1.152 z m -2.544,8.928 -3.408,-0.912 v -3.216 l 8.784,-1.056 h 0.096 l 1.344,0.96 v 23.088 l 3.216,0.384 v 2.88 h -13.392 v -2.88 l 3.36,-0.432 z m 18.848,18.192 q 0.384,0.576 1.728,1.104 1.392,0.48 2.784,0.48 2.256,0 3.36,-0.912 1.152,-0.96 1.152,-2.496 0,-1.584 -1.392,-2.544 -1.392,-1.008 -4.704,-2.448 l -1.344,-0.576 q -3.312,-1.392 -4.944,-3.36 -1.632,-1.968 -1.632,-5.088 0,-2.16 1.296,-3.84 1.296,-1.728 3.648,-2.688 2.352,-0.96 5.424,-0.96 2.256,0 3.84,0.288 1.632,0.288 3.408,0.768 0.96,0.336 1.44,0.384 v 6.288 h -3.792 l -1.104,-3.648 q -0.288,-0.48 -1.296,-0.864 -1.008,-0.384 -2.304,-0.384 -1.968,0 -3.168,0.864 -1.152,0.816 -1.152,2.304 0,1.344 0.816,2.256 0.816,0.864 1.776,1.344 0.96,0.48 3.552,1.584 2.592,1.104 4.272,2.112 1.728,1.008 2.832,2.64 1.152,1.584 1.152,3.888 0,3.552 -2.784,5.76 -2.784,2.208 -8.016,2.208 -2.448,0 -4.416,-0.432 -1.92,-0.432 -4.464,-1.152 l -1.056,-0.336 v -6.336 h 3.984 z m 27.673,4.368 q -3.024,0 -4.464,-1.392 -1.44,-1.392 -1.44,-4.416 v -17.616 h -3.12 v -2.496 q 0.384,-0.144 1.392,-0.48 1.008,-0.384 1.536,-0.624 0.816,-0.624 1.392,-2.16 0.432,-1.008 1.584,-4.992 h 3.84 l 0.192,7.056 h 7.344 v 3.696 h -7.296 v 13.488 q 0,2.688 0.144,3.792 0.144,1.104 0.624,1.44 0.48,0.288 1.68,0.288 1.2,0 2.496,-0.24 1.296,-0.288 2.16,-0.672 l 0.912,2.688 q -1.344,1.008 -3.936,1.824 -2.592,0.816 -5.04,0.816 z m 33.242,3.936 h -4.8 v -46.08 h 4.8 z m 25.353,-36.432 -4.08,-0.624 v -2.976 h 15.36 v 2.976 l -4.224,0.624 V 155.1 l 4.224,0.528 v 2.832 h -15.36 v -2.88 l 4.08,-0.48 z m 18.248,9.936 -3.072,-0.864 v -3.312 l 7.968,-1.008 h 0.144 l 1.2,0.96 v 1.872 l -0.048,1.152 q 1.68,-1.584 4.368,-2.736 2.688,-1.152 5.424,-1.152 2.928,0 4.56,1.104 1.68,1.056 2.4,3.36 0.72,2.304 0.72,6.24 v 13.248 l 2.928,0.384 v 2.88 h -12.384 v -2.88 l 2.592,-0.384 v -13.248 q 0,-2.496 -0.336,-3.888 -0.336,-1.44 -1.248,-2.064 -0.864,-0.672 -2.496,-0.672 -2.736,0 -5.856,2.352 v 17.472 l 2.88,0.432 v 2.88 h -12.528 v -2.88 l 2.784,-0.432 z m 35.359,18.192 q 0.384,0.576 1.728,1.104 1.392,0.48 2.784,0.48 2.256,0 3.36,-0.912 1.152,-0.96 1.152,-2.496 0,-1.584 -1.392,-2.544 -1.392,-1.008 -4.704,-2.448 l -1.344,-0.576 q -3.312,-1.392 -4.944,-3.36 -1.632,-1.968 -1.632,-5.088 0,-2.16 1.296,-3.84 1.296,-1.728 3.648,-2.688 2.352,-0.96 5.424,-0.96 2.256,0 3.84,0.288 1.632,0.288 3.408,0.768 0.96,0.336 1.44,0.384 v 6.288 h -3.792 l -1.104,-3.648 q -0.288,-0.48 -1.296,-0.864 -1.008,-0.384 -2.304,-0.384 -1.968,0 -3.168,0.864 -1.152,0.816 -1.152,2.304 0,1.344 0.816,2.256 0.816,0.864 1.776,1.344 0.96,0.48 3.552,1.584 2.592,1.104 4.272,2.112 1.728,1.008 2.832,2.64 1.152,1.584 1.152,3.888 0,3.552 -2.784,5.76 -2.784,2.208 -8.016,2.208 -2.448,0 -4.416,-0.432 -1.92,-0.432 -4.464,-1.152 l -1.056,-0.336 v -6.336 h 3.984 z m 46.153,-10.272 q 0,4.032 -1.68,7.392 -1.632,3.36 -4.848,5.376 -3.168,1.968 -7.584,1.968 -0.96,0 -2.016,-0.192 -1.008,-0.144 -1.632,-0.384 l 0.144,3.984 v 4.368 l 4.464,0.576 v 2.736 h -14.256 v -2.736 l 3.12,-0.576 v -30.432 l -3.12,-0.864 v -3.312 l 7.92,-1.008 h 0.096 l 1.2,0.96 v 2.688 q 1.2,-1.488 3.264,-2.592 2.064,-1.104 4.512,-1.104 4.56,0 7.488,3.264 2.928,3.216 2.928,9.888 z m -12.912,-9.168 q -1.44,0 -2.736,0.624 -1.296,0.624 -1.968,1.392 v 17.808 q 0.336,0.48 1.344,0.816 1.056,0.336 2.304,0.336 3.12,0 4.944,-2.688 1.872,-2.736 1.872,-8.544 0,-4.896 -1.584,-7.296 -1.584,-2.448 -4.176,-2.448 z m 22.549,-7.68 q -1.728,0 -2.736,-1.008 -1.008,-1.008 -1.008,-2.592 0,-1.824 1.152,-3.024 1.152,-1.2 3.072,-1.2 1.92,0 2.928,1.056 1.008,1.008 1.008,2.544 0,1.92 -1.152,3.072 -1.152,1.152 -3.216,1.152 z m -2.544,8.928 -3.408,-0.912 v -3.216 l 8.784,-1.056 h 0.096 l 1.344,0.96 v 23.088 l 3.216,0.384 v 2.88 h -13.392 v -2.88 l 3.36,-0.432 z m 13.519,19.296 3.168,-0.384 v -18.912 l -3.072,-0.864 v -3.312 l 7.44,-1.008 h 0.144 l 1.2,0.96 v 1.056 l -0.144,3.888 h 0.144 q 0.336,-0.96 1.584,-2.352 1.248,-1.44 3.12,-2.496 1.92,-1.104 4.128,-1.104 1.056,0 1.824,0.288 v 7.2 q -1.44,-1.008 -3.504,-1.008 -3.504,0 -6.096,1.872 v 15.744 l 5.568,0.432 v 2.832 h -15.504 z m 34.69,3.36 q -6.336,0 -9.456,-3.696 -3.072,-3.744 -3.072,-10.176 0,-4.32 1.584,-7.488 1.632,-3.168 4.56,-4.848 2.928,-1.68 6.768,-1.68 4.8,0 7.392,2.544 2.592,2.496 2.688,7.152 0,3.168 -0.384,4.704 h -15.6 q 0.192,4.368 2.064,6.816 1.872,2.4 5.328,2.4 1.872,0 3.84,-0.624 2.016,-0.624 3.168,-1.488 l 1.2,2.64 q -1.296,1.392 -4.224,2.592 -2.88,1.152 -5.856,1.152 z m 3.744,-16.368 q 0.096,-1.344 0.096,-2.064 0,-6.384 -4.272,-6.384 -2.352,0 -3.648,1.872 -1.296,1.872 -1.44,6.576 z"
       id="path20"
       inkscape:connector-curvature="0"
       style="fill:url(#linearGradient865);fill-opacity:1" />
  </g>
</svg>
