<svg fill="#111111" xmlns:dc="http://purl.org/dc/elements/1.1/" xmlns:cc="http://creativecommons.org/ns#" xmlns:rdf="http://www.w3.org/1999/02/22-rdf-syntax-ns#" xmlns:svg="http://www.w3.org/2000/svg" xmlns="http://www.w3.org/2000/svg" xmlns:sodipodi="http://sodipodi.sourceforge.net/DTD/sodipodi-0.dtd" xmlns:inkscape="http://www.inkscape.org/namespaces/inkscape" version="1.1" x="0px" y="0px" viewBox="0 0 100 100"><g transform="translate(0,-952.36218)"><path style="text-indent:0;text-transform:none;direction:ltr;block-progression:tb;baseline-shift:baseline;color:#000000;enable-background:accumulate;" d="m 28.086428,959.35253 c -0.2694,0 -0.5335,0.0503 -0.7813,0.15625 -0.2475,0.10598 -0.4701,0.2739 -0.6562,0.46875 l -14.6875,15.375 c -0.213,0.21713 -0.3732,0.49249 -0.4687,0.78125 -0.096,0.28877 -0.1352,0.60491 -0.094,0.90625 l 0,66.31257 c 0,0.2618 0.056,0.5394 0.1562,0.7812 0.1003,0.2419 0.2523,0.4712 0.4376,0.6563 0.185,0.1851 0.4143,0.306 0.6562,0.4062 0.2418,0.1002 0.4882,0.1563 0.75,0.1563 l 58.2188,0 c 0.3139,0.045 0.6378,0.01 0.9374,-0.094 0.2999,-0.1039 0.5935,-0.2704 0.8126,-0.5 l 0,-0.031 14.6874,-15.375 c 0.1756,-0.1838 0.3118,-0.3891 0.4063,-0.625 0.095,-0.2359 0.1563,-0.4958 0.1563,-0.75 l 0,-66.62507 c 0,-0.26179 -0.056,-0.50814 -0.1563,-0.75 -0.1002,-0.24186 -0.2524,-0.47114 -0.4375,-0.65625 -0.1852,-0.18512 -0.3831,-0.33731 -0.625,-0.4375 -0.2418,-0.1002 -0.5196,-0.15622 -0.7812,-0.15625 l -58.5313,0 z m 0.875,4 52.9375,0 -10.9062,11.375 -52.9063,0 10.875,-11.375 z m 55.6563,2.9375 0,60.87507 -10.6876,11.2187 0,-60.93752 10.6876,-11.15625 z m -62.3438,27.40625 5.9062,0 c 0.2618,3e-5 0.5084,0.0561 0.75,0.15625 0.242,0.1002 0.4711,0.25238 0.6563,0.4375 0.1851,0.18511 0.3373,0.38314 0.4375,0.625 0.1002,0.24186 0.1562,0.51946 0.1562,0.78125 l 0,5.87502 c 0,0.2618 -0.056,0.5081 -0.1562,0.75 -0.1002,0.2418 -0.2524,0.4711 -0.4375,0.6562 -0.1852,0.1852 -0.4143,0.3373 -0.6563,0.4375 -0.2416,0.1002 -0.4882,0.1563 -0.75,0.1563 l -5.9062,0 c -0.2618,0 -0.5394,-0.056 -0.7812,-0.1563 -0.242,-0.1002 -0.44,-0.2523 -0.625,-0.4375 -0.1853,-0.1851 -0.3373,-0.4144 -0.4376,-0.6562 -0.1001,-0.2419 -0.1562,-0.4882 -0.1562,-0.75 l 0,-5.87502 c 0,-0.26179 0.056,-0.53939 0.1562,-0.78125 0.1004,-0.24186 0.2523,-0.43989 0.4376,-0.625 0.1851,-0.18512 0.383,-0.3373 0.625,-0.4375 0.2418,-0.10019 0.5194,-0.15625 0.7812,-0.15625 z m 17.6562,0 5.9376,0 c 0.2616,3e-5 0.508,0.0561 0.75,0.15625 0.2418,0.1002 0.471,0.25238 0.6562,0.4375 0.1851,0.18511 0.3373,0.38314 0.4375,0.625 0.1002,0.24186 0.1563,0.51946 0.1563,0.78125 l 0,5.87502 c 0,0.2618 -0.056,0.5081 -0.1563,0.75 -0.1002,0.2418 -0.2524,0.4711 -0.4375,0.6562 -0.1852,0.1852 -0.4144,0.3373 -0.6562,0.4375 -0.242,0.1002 -0.4884,0.1563 -0.75,0.1563 l -5.9376,0 c -0.2616,0 -0.5081,-0.056 -0.75,-0.1563 -0.2418,-0.1002 -0.471,-0.2523 -0.6562,-0.4375 -0.1851,-0.1851 -0.3373,-0.4144 -0.4375,-0.6562 -0.1002,-0.2419 -0.1563,-0.4882 -0.1563,-0.75 l 0,-5.87502 c 0,-0.26179 0.056,-0.53939 0.1563,-0.78125 0.1002,-0.24186 0.2524,-0.43989 0.4375,-0.625 0.1852,-0.18512 0.4144,-0.3373 0.6562,-0.4375 0.2419,-0.10019 0.4884,-0.15625 0.75,-0.15625 z m 17.2188,0 5.9062,0 c 0.2618,3e-5 0.5395,0.0561 0.7813,0.15625 0.2419,0.1002 0.471,0.25238 0.6563,0.4375 0.185,0.18511 0.3373,0.38314 0.4374,0.625 0.1004,0.24186 0.125,0.51946 0.125,0.78125 l 0,5.87502 c 0,0.2618 -0.025,0.5081 -0.125,0.75 -0.1001,0.2418 -0.2524,0.4711 -0.4374,0.6562 -0.1854,0.1852 -0.4144,0.3373 -0.6563,0.4375 -0.2418,0.1002 -0.5195,0.1563 -0.7813,0.1563 l -5.9062,0 c -0.2618,0 -0.5082,-0.056 -0.75,-0.1563 -0.2419,-0.1002 -0.4712,-0.2523 -0.6562,-0.4375 -0.1852,-0.1851 -0.3373,-0.4144 -0.4376,-0.6562 -0.1001,-0.2419 -0.1562,-0.4882 -0.1562,-0.75 l 0,-5.87502 c 0,-0.26179 0.056,-0.53939 0.1562,-0.78125 0.1004,-0.24186 0.2524,-0.43989 0.4376,-0.625 0.1851,-0.18512 0.4143,-0.3373 0.6562,-0.4375 0.2418,-0.10019 0.4882,-0.15625 0.75,-0.15625 z m -34.875,17.28132 5.9062,0 c 0.2618,0 0.5084,0.056 0.75,0.1562 0.242,0.1002 0.4711,0.2524 0.6563,0.4375 0.1851,0.1851 0.3373,0.4144 0.4375,0.6563 0.1002,0.2418 0.1562,0.4882 0.1562,0.75 l 0,5.875 c 0,0.2618 -0.056,0.5081 -0.1562,0.75 -0.1002,0.2418 -0.2524,0.4711 -0.4375,0.6562 -0.1852,0.1852 -0.4143,0.3373 -0.6563,0.4375 -0.2416,0.1002 -0.4882,0.1563 -0.75,0.1563 l -5.9062,0 c -0.2618,0 -0.5394,-0.056 -0.7812,-0.1563 -0.242,-0.1002 -0.44,-0.2523 -0.625,-0.4375 -0.1853,-0.1851 -0.3373,-0.4144 -0.4376,-0.6562 -0.1001,-0.2419 -0.1562,-0.4882 -0.1562,-0.75 l 0,-5.875 c 0,-0.2618 0.056,-0.5082 0.1562,-0.75 0.1004,-0.2419 0.2523,-0.4712 0.4376,-0.6563 0.1851,-0.1851 0.383,-0.3373 0.625,-0.4375 0.2418,-0.1002 0.5194,-0.1562 0.7812,-0.1562 z m 17.6562,0 5.9376,0 c 0.2616,0 0.508,0.056 0.75,0.1562 0.2418,0.1002 0.471,0.2524 0.6562,0.4375 0.1851,0.1851 0.3373,0.4144 0.4375,0.6563 0.1002,0.2418 0.1563,0.4882 0.1563,0.75 l 0,5.875 c 0,0.2618 -0.056,0.5081 -0.1563,0.75 -0.1002,0.2418 -0.2524,0.4711 -0.4375,0.6562 -0.1852,0.1852 -0.4144,0.3373 -0.6562,0.4375 -0.242,0.1002 -0.4884,0.1563 -0.75,0.1563 l -5.9376,0 c -0.2616,0 -0.5081,-0.056 -0.75,-0.1563 -0.2418,-0.1002 -0.471,-0.2523 -0.6562,-0.4375 -0.1851,-0.1851 -0.3373,-0.4144 -0.4375,-0.6562 -0.1002,-0.2419 -0.1563,-0.4882 -0.1563,-0.75 l 0,-5.875 c 0,-0.2618 0.056,-0.5082 0.1563,-0.75 0.1002,-0.2419 0.2524,-0.4712 0.4375,-0.6563 0.1852,-0.1851 0.4144,-0.3373 0.6562,-0.4375 0.2419,-0.1002 0.4884,-0.1562 0.75,-0.1562 z m 17.2188,0 5.9062,0 c 0.2618,0 0.5395,0.056 0.7813,0.1562 0.2419,0.1002 0.471,0.2524 0.6563,0.4375 0.185,0.1851 0.3373,0.4144 0.4374,0.6563 0.1004,0.2418 0.125,0.4882 0.125,0.75 l 0,5.875 c 0,0.2618 -0.025,0.5081 -0.125,0.75 -0.1001,0.2418 -0.2524,0.4711 -0.4374,0.6562 -0.1854,0.1852 -0.4144,0.3373 -0.6563,0.4375 -0.2418,0.1002 -0.5195,0.1563 -0.7813,0.1563 l -5.9062,0 c -0.2618,0 -0.5082,-0.056 -0.75,-0.1563 -0.2419,-0.1002 -0.4712,-0.2523 -0.6562,-0.4375 -0.1852,-0.1851 -0.3373,-0.4144 -0.4376,-0.6562 -0.1001,-0.2419 -0.1562,-0.4882 -0.1562,-0.75 l 0,-5.875 c 0,-0.2618 0.056,-0.5082 0.1562,-0.75 0.1004,-0.2419 0.2524,-0.4712 0.4376,-0.6563 0.1851,-0.1851 0.4143,-0.3373 0.6562,-0.4375 0.2418,-0.1002 0.4882,-0.1562 0.75,-0.1562 z m -20.375,22.375 11.7812,0 c 2.1803,0 3.9376,1.7564 3.9376,3.875 l 0,4.125 -19.625,0 0,-4.125 c 0,-2.1186 1.7393,-3.875 3.9062,-3.875 z" fill="#111111" fill-opacity="1" fill-rule="evenodd" stroke="none" marker="none" visibility="visible" display="inline" overflow="visible"></path></g></svg>