<svg fill="#111" xmlns="http://www.w3.org/2000/svg" viewBox="-949 951 100 100"><switch><g><path d="M-853.9 993.1c-3.1-4.1-8.7-4.9-12.6-5.1-4.7-.3-9-.1-14 .3-.2-.6-.4-1.9-.2-4.6.7-8 1.6-13.9 2.3-18.6l.1-.4c.8-5.1-2-9.4-6.8-10.7-4.5-1.2-10.4.4-12.6 5.7-.3.7-.6 1.6-1 2.7-2.8 7.4-9.1 24.3-19.3 30.4v-.9c0-1.3-1-2.3-2.3-2.3h-24c-1.3 0-2.3 1-2.3 2.3v50c0 1.3 1 2.3 2.3 2.3h24c1.3 0 2.3-1 2.3-2.3v-.5c8 2.2 27.2 6.9 40.9 6.9 7.2 0 16.2 0 18.7-11.3 2-8.9 4.6-22.1 6.3-31.2 1.2-5.5.6-9.7-1.8-12.7zm-4 11.7c-1.7 9.1-4.3 22.1-6.3 31-1.3 5.8-3.9 6.6-12.9 6.6-13.2 0-32.2-4.8-39.7-6.8-.7-.2-1.1-.7-1.2-1.4v-33.7c0-.6.3-1.2.8-1.4 13.4-6.2 20.6-25.4 24-34.6.4-1 .7-1.9 1-2.5.7-1.6 2.4-2.4 4.1-2.4.5 0 1 .1 1.4.2 1.4.4 2.9 1.4 2.5 4.1l-.1.4c-.7 4.8-1.7 10.7-2.4 19-.4 4.7.3 7.9 2 9.6 1 1 2.4 1.5 3.9 1.4 5.1-.5 9.2-.7 13.7-.4 4.3.3 7 1.2 8.3 2.8 1.4 1.6 1.7 4.3.9 8.1z"/></g></switch></svg>