<svg xmlns="http://www.w3.org/2000/svg" width="1484.052" height="287.999"><path d="M37.082 283.29c0 2.59 2.143 4.709 4.764 4.709h131.87c2.622 0 4.766-2.119 4.766-4.709v-7.521c0-2.59-2.144-4.71-4.766-4.71H41.846c-2.621 0-4.764 2.12-4.764 4.71v7.521z" fill="#333"/><path d="M.482 134.9c1.72-21.61 9-40.442 15.8-53.951 6.82-13.509 13.2-21.711 13.4-21.975 2.389-3.061 6.833-3.631 9.93-1.271a6.942 6.942 0 0 1 1.289 9.811v.001c-.161.204-5.353 6.967-11.085 18l20.254 1.564 2.894-40.03c.186-2.584 2.482-4.698 5.103-4.698h99.42c2.622 0 4.92 2.114 5.105 4.698l6.612 91.501 15.962-36.81c1.032-2.383 4.021-4.331 6.641-4.331h16.182c2.619 0 4.064 2.003 3.212 4.453l-36.985 106.02 3.919 54.245c.188 2.581-1.805 4.696-4.427 4.696H41.838c-2.621 0-4.612-2.115-4.424-4.696l5.223-72.318-21.832-1.688c.391 1.154.785 2.261 1.179 3.316 1.945 5.216 3.881 9.231 5.301 11.899a63.894 63.894 0 0 0 1.68 2.971c.193.318.341.55.43.69l.091.141v.001c2.176 3.213 1.303 7.559-1.948 9.707a7.086 7.086 0 0 1-3.929 1.183 7.1 7.1 0 0 1-5.893-3.107C17.253 214.216.027 188.581 0 146.909c-.002-3.867.151-7.872.476-12.006zm16.927 41.162c.05.004.096 0 .145.004l25.938 2.005 5.729-79.256-24.746-1.912c-4.649 11.076-8.734 24.541-9.875 39.088a138.773 138.773 0 0 0-.433 10.917c0 11.055 1.346 20.844 3.242 29.154z" fill="#660080"/><path d="M53.642 33.419s.578-7.312.578-8.008c0-6.103 18.136-11.199 42.318-12.425l-2.445-8.459c-.73-2.489.82-4.527 3.44-4.527h20.465c2.621 0 4.176 2.038 3.455 4.528l-2.445 8.459c24.183 1.226 42.319 6.322 42.319 12.425 0 .696.578 8.008.578 8.008.186 2.584-1.805 4.698-4.427 4.698H58.05c-2.619-.001-4.61-2.115-4.423-4.699z" fill="#333"/><g fill="#999"><path d="M192.968 80.735c6.047-6.825 8.811-12.993 8.813-18.822-.009-6.179-3.074-10.987-6.189-14.888-3.165-3.917-6.555-7.286-8.485-10.459-1.301-2.12-1.97-3.99-1.973-6.027-.014-3.009 1.551-7.313 7.688-13.601a4.19 4.19 0 0 0-.13-6.006c-1.729-1.623-4.472-1.568-6.131.125-6.912 7.057-10.085 13.385-10.099 19.482.019 6.057 3.115 10.728 6.209 14.56 3.148 3.855 6.512 7.22 8.444 10.473 1.302 2.172 1.991 4.139 1.997 6.342 0 3.071-1.417 7.267-6.698 13.266a4.193 4.193 0 0 0 .438 5.992 4.376 4.376 0 0 0 2.836 1.033 4.356 4.356 0 0 0 3.28-1.47z"/><path d="M213.209 80.735c6.046-6.825 8.81-12.993 8.813-18.822-.008-6.179-3.073-10.987-6.189-14.888-3.166-3.917-6.555-7.286-8.483-10.459-1.304-2.12-1.972-3.99-1.974-6.027-.015-3.009 1.55-7.313 7.687-13.601a4.19 4.19 0 0 0-.131-6.006c-1.728-1.623-4.471-1.568-6.131.125-6.909 7.057-10.084 13.385-10.098 19.482.021 6.057 3.116 10.728 6.209 14.56 3.149 3.855 6.513 7.22 8.444 10.473 1.303 2.172 1.991 4.139 1.999 6.342 0 3.071-1.419 7.267-6.7 13.266a4.193 4.193 0 0 0 .438 5.992 4.374 4.374 0 0 0 2.835 1.033 4.36 4.36 0 0 0 3.281-1.47z"/></g><path d="M148.737 81.07c-.613 1.274-.74 2.718-1.58 3.869-.098-.019-.269-.078-.358-.108.066-1.331.377-2.683.18-4.031-.24-.79-.458-1.86-1.48-1.938-1.934-.5-3.82.53-5.46 1.412-1.987 1.041-3.688 2.488-5.496 3.76-1.802 1.49-6.132 2.523-24.436 25.98-6.774 8.637-12.61 17.912-13.123 18.16-4.45 9.041-19.297 12.82-21.53 15.152-.502.281.442 1.167.334 1.377 1.487 1.094 13.198 8.06 14.414 6.807-.361 1.927-1.322 3.644-1.83 5.53-.902 3.063-3.923 19.413-5.993 27.518-.847 2.814-2.3 5.399-3.629 8.006-1.34 2.486-3.169 4.67-5.042 6.756-2.357 2.512-24.48 21.099-23.75 21.679 6.62 3.333 12.891 2.124 20.039 2.634.896.355 1.902.428 2.718.998 3.81 3.723 5.007 11.012 9.02 14.725.91.448 1.508 1.257 2.153 2.008.631-1.05 1.253-2.101 1.79-3.207.945-2.52 4.61-18.246 5.213-20.645.595-2.343.711-4.763 1.268-7.093.325-1.32.262-2.69.673-3.968.9-2.496 1.828-5.008 3.275-7.253 1.017-1.56 2.022-3.115 3.21-4.558.902-1.088 7.299-9.283 11.96-13.764 2.124-3.432 14.644-14.15 15.572-15.291 2.326 3.842 4.313 4.575 8.077 7.197 1.244 1.084 2.847 1.988 4.536 1.601.66-.23 1.06-.953.983-1.634-4.02-11.352-2.782-21.13-3.707-22.051 2.834-4.192 4.689-8.925 7.022-13.392 12.44-24.779 8.167-48.62 8.112-50.638.009-1.66-.012-3.447-.906-4.909-.246-.927-1.524-1.308-2.23-.686zm-8.46 14.513a2.957 2.957 0 0 1-3.985 1.272 2.957 2.957 0 0 1-1.276-3.983 2.96 2.96 0 1 1 5.26 2.711z" fill="#fff"/><g style="line-height:0%" font-weight="700" font-family="Paytone One" letter-spacing="-8.783" word-spacing="0" fill="#660080" font-size="375.97" text-anchor="middle"><path d="M271.324 123.41h81.76v26.218H308.41v23.976h41.397v21.734H308.41v46.745h-37.086zM393.439 243.463q-14.49 0-22.596-9.315-8.107-9.314-8.107-25.356v-53.127h36.567v51.575q0 3.967 2.07 6.21 2.243 2.07 5.692 2.07 3.45 0 7.073-2.07l1.897 23.975q-3.795 2.933-10.004 4.485-6.038 1.553-12.592 1.553zm-12.42-100.735q-8.107 0-13.799-5.002-5.52-5.175-5.52-12.592 0-7.417 5.865-12.419 5.865-5.002 13.454-5.002 7.935 0 13.627 5.174 5.865 5.175 5.865 12.247 0 7.59-5.865 12.592-5.864 5.002-13.627 5.002zM451.89 243.463q-18.11 0-31.737-5.348l3.967-20.526q12.42 4.485 24.149 4.485 8.624 0 8.624-4.83 0-2.415-2.587-3.967-2.415-1.553-9.315-2.76-14.316-2.76-20.699-9.315-6.21-6.554-6.21-18.628.69-13.627 10.868-20.872 10.177-7.244 27.77-7.244 8.97 0 15.352 1.207 6.555 1.035 11.902 3.622l-3.622 20.527q-5.002-1.898-11.04-2.933-5.864-1.035-9.832-1.035-5.864 0-8.107 1.208-2.242 1.207-2.242 3.277 0 3.795 8.625 5.347 15.696 2.76 23.458 9.66 7.762 6.9 7.762 18.801 0 13.627-9.66 21.562-9.486 7.762-27.425 7.762zM497.864 128.412l36.396-5.348v50.368q3.795-9.142 11.384-13.972 7.762-5.002 18.63-5.002 16.558 0 25.873 11.901 9.487 11.73 9.487 32.601v43.123H563.41v-46.745q0-7.417-3.278-11.385-3.104-3.967-8.797-3.967-4.14 0-8.107 2.76-3.967 2.587-6.554 7.59-2.415 5.002-2.415 11.384v40.363h-36.396z" style="line-height:83.99999738%;-inkscape-font-specification:'Paytone One Bold';text-align:center" fill="#333"/><path d="M615.01 123.41h42.777q26.563 0 41.052 10.349 14.662 10.35 14.662 28.978 0 11.73-7.245 20.526-7.072 8.797-19.49 13.627-12.248 4.657-27.254 4.657h-7.245v40.536h-37.258zm44.674 54.161q9.142 0 14.144-3.794 5.003-3.795 5.003-11.04 0-7.244-5.003-10.867-4.83-3.622-14.144-3.622h-7.417v28.978q3.45.345 7.417.345zM763.232 243.463q-14.317 0-25.529-5.693-11.04-5.864-17.249-15.869-6.21-10.177-6.21-22.94 0-13.11 6.383-23.287 6.382-10.177 17.249-15.697 10.866-5.52 24.148-5.52 12.765 0 21.734 5.693 9.142 5.52 13.627 15.179 4.484 9.487 4.484 21.389 0 3.105-.345 4.484l-51.747 6.728q2.07 6.037 6.728 8.797 4.657 2.587 12.246 2.587 11.73 0 25.356-6.037l4.313 23.113q-16.042 7.073-35.188 7.073zm11.901-57.267q-2.76-10.867-13.109-10.867-6.21 0-9.832 4.657-3.622 4.657-3.795 12.074zM810.542 156.872h36.395v17.594q3.968-10.176 10.695-15.006 6.9-5.002 16.041-5.002l5.003 28.116q-16.387 0-24.149 3.622-7.59 3.45-7.59 11.04v44.847h-36.395zM925.93 243.463q-13.8 0-24.494-5.52-10.522-5.692-16.56-15.87-5.864-10.176-5.864-23.113 0-12.42 6.21-22.596 6.21-10.177 16.904-16.042 10.694-5.864 23.803-5.864 16.732 0 26.391 6.9l-3.277 22.94q-9.832-2.932-16.214-2.932-8.28 0-13.11 4.83-4.829 4.657-4.829 12.764t4.83 12.937q4.83 4.83 12.764 4.83 6.9 0 16.214-2.933l3.277 24.149q-5.864 2.932-11.901 4.14-6.038 1.38-14.145 1.38zM1005.177 243.463q-14.489 0-25.873-5.693-11.212-5.692-17.594-15.696-6.21-10.177-6.21-23.286 0-13.11 6.382-23.114 6.383-10.177 17.594-15.697 11.385-5.52 25.874-5.52 14.662 0 25.873 5.693 11.385 5.52 17.594 15.524 6.21 10.004 6.21 23.114 0 13.281-6.382 23.458-6.21 10.005-17.594 15.697-11.212 5.52-25.874 5.52zm.345-25.874q7.073 0 11.557-5.175 4.657-5.347 4.657-13.626 0-8.28-4.657-13.455-4.484-5.347-11.557-5.347-7.072 0-11.729 5.347-4.485 5.175-4.485 13.455 0 8.28 4.485 13.626 4.657 5.175 11.73 5.175zM1094.284 243.463q-14.661 0-22.768-9.142-7.935-9.315-7.935-25.356v-80.553l36.395-5.348v83.313q0 4.83 2.243 7.072 2.415 2.07 8.28 2.07 4.312 0 8.451-2.07l1.208 24.149q-11.557 5.865-25.874 5.865zM1163.374 243.463q-11.212 0-21.044-5.865-9.659-6.037-15.524-16.214-5.864-10.35-5.864-22.941 0-12.42 5.864-22.424 5.865-10.177 15.697-15.87 9.832-5.691 20.871-5.691 8.97 0 16.56 5.002 7.761 5.002 11.729 15.006v-20.008h36.223v87.625h-36.223V226.04q-8.625 17.422-28.289 17.422zm11.212-27.254q6.9 0 11.73-4.83 5.002-5.002 5.347-11.729v-1.38q-.345-6.9-5.52-11.73-5.002-4.829-11.557-4.829-7.244 0-12.42 5.175-5.001 5.002-5.001 12.074 0 7.245 5.174 12.247 5.175 5.002 12.247 5.002zM1278.934 243.463q-15.179 0-23.63-8.625-8.453-8.797-8.453-24.149v-33.635h-11.04v-21.389h13.627l16.042-32.6h17.421v32.6h20.01v21.389h-20.01v29.323q0 4.312 2.76 6.727t7.762 2.415q4.658 0 8.452-2.07l1.38 24.149q-4.312 2.587-11.212 4.312-6.727 1.553-13.109 1.553zM1355.937 243.463q-14.489 0-25.873-5.693-11.212-5.692-17.594-15.696-6.21-10.177-6.21-23.286 0-13.11 6.382-23.114 6.382-10.177 17.594-15.697 11.384-5.52 25.874-5.52 14.661 0 25.873 5.693 11.384 5.52 17.594 15.524 6.21 10.004 6.21 23.114 0 13.281-6.382 23.458-6.21 10.005-17.594 15.697-11.212 5.52-25.874 5.52zm.345-25.874q7.072 0 11.557-5.175 4.657-5.347 4.657-13.626 0-8.28-4.657-13.455-4.485-5.347-11.557-5.347t-11.73 5.347q-4.484 5.175-4.484 13.455 0 8.28 4.485 13.626 4.657 5.175 11.73 5.175zM1414.686 156.872h36.395v17.594q3.967-10.176 10.695-15.006 6.9-5.002 16.041-5.002l5.002 28.116q-16.386 0-24.148 3.622-7.59 3.45-7.59 11.04v44.847h-36.395z" style="line-height:83.99999738%;-inkscape-font-specification:'Paytone One Bold';text-align:center"/></g></svg>