<svg xmlns="http://www.w3.org/2000/svg" width="844.279" height="287.999"><path d="M37.082 283.29c0 2.59 2.143 4.709 4.764 4.709h131.87c2.622 0 4.766-2.119 4.766-4.709v-7.521c0-2.59-2.144-4.71-4.766-4.71H41.846c-2.621 0-4.764 2.12-4.764 4.71v7.521z" fill="#333"/><path d="M.482 134.9c1.72-21.61 9-40.442 15.8-53.951 6.82-13.509 13.2-21.711 13.4-21.975 2.389-3.061 6.833-3.631 9.93-1.271a6.942 6.942 0 0 1 1.289 9.811v.001c-.161.204-5.353 6.967-11.085 18l20.254 1.564 2.894-40.03c.186-2.584 2.482-4.698 5.103-4.698h99.42c2.622 0 4.92 2.114 5.105 4.698l6.612 91.501 15.962-36.81c1.032-2.383 4.021-4.331 6.641-4.331h16.182c2.619 0 4.064 2.003 3.212 4.453l-36.985 106.02 3.919 54.245c.188 2.581-1.805 4.696-4.427 4.696H41.838c-2.621 0-4.612-2.115-4.424-4.696l5.223-72.318-21.832-1.688c.391 1.154.785 2.261 1.179 3.316 1.945 5.216 3.881 9.231 5.301 11.899a63.894 63.894 0 0 0 1.68 2.971c.193.318.341.55.43.69l.091.141v.001c2.176 3.213 1.303 7.559-1.948 9.707a7.086 7.086 0 0 1-3.929 1.183 7.1 7.1 0 0 1-5.893-3.107C17.253 214.216.027 188.581 0 146.909c-.002-3.867.151-7.872.476-12.006zm16.927 41.162c.05.004.096 0 .145.004l25.938 2.005 5.729-79.256-24.746-1.912c-4.649 11.076-8.734 24.541-9.875 39.088a138.773 138.773 0 0 0-.433 10.917c0 11.055 1.346 20.844 3.242 29.154z" fill="#660080"/><path d="M53.642 33.419s.578-7.312.578-8.008c0-6.103 18.136-11.199 42.318-12.425l-2.445-8.459c-.73-2.489.82-4.527 3.44-4.527h20.465c2.621 0 4.176 2.038 3.455 4.528l-2.445 8.459c24.183 1.226 42.319 6.322 42.319 12.425 0 .696.578 8.008.578 8.008.186 2.584-1.805 4.698-4.427 4.698H58.05c-2.619-.001-4.61-2.115-4.423-4.699z" fill="#333"/><g fill="#999"><path d="M192.968 80.735c6.047-6.825 8.811-12.993 8.813-18.822-.009-6.179-3.074-10.987-6.189-14.888-3.165-3.917-6.555-7.286-8.485-10.459-1.301-2.12-1.97-3.99-1.973-6.027-.014-3.009 1.551-7.313 7.688-13.601a4.19 4.19 0 0 0-.13-6.006c-1.729-1.623-4.472-1.568-6.131.125-6.912 7.057-10.085 13.385-10.099 19.482.019 6.057 3.115 10.728 6.209 14.56 3.148 3.855 6.512 7.22 8.444 10.473 1.302 2.172 1.991 4.139 1.997 6.342 0 3.071-1.417 7.267-6.698 13.266a4.193 4.193 0 0 0 .438 5.992 4.376 4.376 0 0 0 2.836 1.033 4.356 4.356 0 0 0 3.28-1.47z"/><path d="M213.209 80.735c6.046-6.825 8.81-12.993 8.813-18.822-.008-6.179-3.073-10.987-6.189-14.888-3.166-3.917-6.555-7.286-8.483-10.459-1.304-2.12-1.972-3.99-1.974-6.027-.015-3.009 1.55-7.313 7.687-13.601a4.19 4.19 0 0 0-.131-6.006c-1.728-1.623-4.471-1.568-6.131.125-6.909 7.057-10.084 13.385-10.098 19.482.021 6.057 3.116 10.728 6.209 14.56 3.149 3.855 6.513 7.22 8.444 10.473 1.303 2.172 1.991 4.139 1.999 6.342 0 3.071-1.419 7.267-6.7 13.266a4.193 4.193 0 0 0 .438 5.992 4.374 4.374 0 0 0 2.835 1.033 4.36 4.36 0 0 0 3.281-1.47z"/></g><path d="M148.737 81.07c-.613 1.274-.74 2.718-1.58 3.869-.098-.019-.269-.078-.358-.108.066-1.331.377-2.683.18-4.031-.24-.79-.458-1.86-1.48-1.938-1.934-.5-3.82.53-5.46 1.412-1.987 1.041-3.688 2.488-5.496 3.76-1.802 1.49-6.132 2.523-24.436 25.98-6.774 8.637-12.61 17.912-13.123 18.16-4.45 9.041-19.297 12.82-21.53 15.152-.502.281.442 1.167.334 1.377 1.487 1.094 13.198 8.06 14.414 6.807-.361 1.927-1.322 3.644-1.83 5.53-.902 3.063-3.923 19.413-5.993 27.518-.847 2.814-2.3 5.399-3.629 8.006-1.34 2.486-3.169 4.67-5.042 6.756-2.357 2.512-24.48 21.099-23.75 21.679 6.62 3.333 12.891 2.124 20.039 2.634.896.355 1.902.428 2.718.998 3.81 3.723 5.007 11.012 9.02 14.725.91.448 1.508 1.257 2.153 2.008.631-1.05 1.253-2.101 1.79-3.207.945-2.52 4.61-18.246 5.213-20.645.595-2.343.711-4.763 1.268-7.093.325-1.32.262-2.69.673-3.968.9-2.496 1.828-5.008 3.275-7.253 1.017-1.56 2.022-3.115 3.21-4.558.902-1.088 7.299-9.283 11.96-13.764 2.124-3.432 14.644-14.15 15.572-15.291 2.326 3.842 4.313 4.575 8.077 7.197 1.244 1.084 2.847 1.988 4.536 1.601.66-.23 1.06-.953.983-1.634-4.02-11.352-2.782-21.13-3.707-22.051 2.834-4.192 4.689-8.925 7.022-13.392 12.44-24.779 8.167-48.62 8.112-50.638.009-1.66-.012-3.447-.906-4.909-.246-.927-1.524-1.308-2.23-.686zm-8.46 14.513a2.957 2.957 0 0 1-3.985 1.272 2.957 2.957 0 0 1-1.276-3.983 2.96 2.96 0 1 1 5.26 2.711z" fill="#fff"/><path style="line-height:83.99999738%;-inkscape-font-specification:'Paytone One Bold'" d="M259.053 60.737h54.984v17.632h-30.044v16.124h27.84v14.616h-27.84v31.436h-24.94zm82.122 80.736q-9.744 0-15.196-6.264t-5.452-17.052V82.429h24.592v34.684q0 2.668 1.392 4.176 1.508 1.392 3.828 1.392t4.756-1.392l1.276 16.124q-2.552 1.972-6.728 3.016-4.06 1.044-8.468 1.044zm-8.352-67.744q-5.452 0-9.28-3.364-3.712-3.48-3.712-8.468 0-4.988 3.944-8.352t9.048-3.364q5.336 0 9.164 3.48 3.944 3.48 3.944 8.236 0 5.104-3.944 8.468t-9.164 3.364zm47.661 67.744q-12.18 0-21.344-3.596l2.668-13.804q8.352 3.016 16.24 3.016 5.8 0 5.8-3.248 0-1.624-1.74-2.668-1.624-1.044-6.264-1.856-9.628-1.856-13.92-6.264-4.176-4.408-4.176-12.528.464-9.164 7.308-14.036 6.844-4.872 18.676-4.872 6.032 0 10.324.812 4.408.696 8.004 2.436l-2.436 13.804q-3.364-1.276-7.424-1.972-3.944-.696-6.612-.696-3.944 0-5.452.812t-1.508 2.204q0 2.552 5.8 3.596 10.556 1.856 15.776 6.496 5.22 4.64 5.22 12.644 0 9.164-6.496 14.5-6.38 5.22-18.444 5.22zm30.918-77.372l24.476-3.596v33.872q2.552-6.148 7.656-9.396 5.22-3.364 12.528-3.364 11.136 0 17.4 8.004 6.38 7.888 6.38 21.924v29h-24.36v-31.436q0-4.988-2.204-7.656-2.088-2.668-5.916-2.668-2.784 0-5.452 1.856-2.668 1.74-4.408 5.104-1.624 3.364-1.624 7.656v27.144h-24.476z" font-weight="700" font-size="116" font-family="Paytone One" letter-spacing="-2.71" word-spacing="0" fill="#333"/><path style="line-height:83.99999738%;-inkscape-font-specification:'Paytone One Bold'" d="M259.053 158.177h28.768q17.864 0 27.608 6.96 9.86 6.96 9.86 19.488 0 7.888-4.872 13.804-4.756 5.916-13.108 9.164-8.236 3.132-18.328 3.132h-4.872v27.26h-25.056zm30.044 36.424q6.148 0 9.512-2.552 3.364-2.552 3.364-7.424t-3.364-7.308q-3.248-2.436-9.512-2.436h-4.988v19.488q2.32.232 4.988.232zm69.636 44.312q-9.628 0-17.168-3.828-7.424-3.944-11.6-10.672-4.176-6.844-4.176-15.428 0-8.816 4.292-15.66 4.292-6.844 11.6-10.556 7.308-3.712 16.24-3.712 8.584 0 14.616 3.828 6.148 3.712 9.164 10.208 3.016 6.38 3.016 14.384 0 2.088-.232 3.016l-34.8 4.524q1.392 4.06 4.524 5.916 3.132 1.74 8.236 1.74 7.888 0 17.052-4.06l2.9 15.544q-10.788 4.756-23.664 4.756zm8.004-38.512q-1.856-7.308-8.816-7.308-4.176 0-6.612 3.132t-2.552 8.12zm23.813-19.72h24.475v11.832q2.668-6.844 7.192-10.092 4.64-3.364 10.788-3.364l3.364 18.908q-11.02 0-16.24 2.436-5.104 2.32-5.104 7.424v30.16H390.55zm77.597 58.232q-9.28 0-16.472-3.712-7.076-3.828-11.136-10.672-3.944-6.844-3.944-15.544 0-8.352 4.176-15.196 4.176-6.844 11.368-10.788t16.008-3.944q11.252 0 17.748 4.64l-2.204 15.428q-6.612-1.972-10.904-1.972-5.568 0-8.816 3.248-3.248 3.132-3.248 8.584t3.248 8.7q3.248 3.248 8.584 3.248 4.64 0 10.904-1.972l2.204 16.24q-3.944 1.972-8.004 2.784-4.06.928-9.512.928zm53.295 0q-9.744 0-17.4-3.828-7.54-3.828-11.832-10.556-4.176-6.844-4.176-15.66 0-8.816 4.292-15.544 4.292-6.844 11.832-10.556 7.656-3.712 17.4-3.712 9.86 0 17.4 3.828 7.656 3.712 11.832 10.44 4.176 6.728 4.176 15.544 0 8.932-4.292 15.776-4.176 6.728-11.832 10.556-7.54 3.712-17.4 3.712zm.232-17.4q4.756 0 7.772-3.48 3.132-3.596 3.132-9.164t-3.132-9.048q-3.016-3.596-7.772-3.596t-7.888 3.596q-3.016 3.48-3.016 9.048t3.016 9.164q3.132 3.48 7.888 3.48zm59.693 17.4q-9.86 0-15.312-6.148-5.336-6.264-5.336-17.052v-54.172l24.476-3.596v56.028q0 3.248 1.508 4.756 1.624 1.392 5.568 1.392 2.9 0 5.684-1.392l.812 16.24q-7.772 3.944-17.4 3.944zm46.463 0q-7.54 0-14.152-3.944-6.496-4.06-10.44-10.904-3.944-6.96-3.944-15.428 0-8.352 3.944-15.08 3.944-6.844 10.556-10.672 6.612-3.828 14.036-3.828 6.032 0 11.136 3.364 5.22 3.364 7.888 10.092v-13.456h24.36v58.928h-24.36v-10.788q-5.8 11.716-19.024 11.716zm7.54-18.328q4.64 0 7.888-3.248 3.364-3.364 3.596-7.888v-.928q-.232-4.64-3.712-7.888-3.364-3.248-7.772-3.248-4.872 0-8.352 3.48-3.364 3.364-3.364 8.12 0 4.872 3.48 8.236 3.48 3.364 8.236 3.364zm70.174 18.328q-10.208 0-15.892-5.8-5.684-5.916-5.684-16.24v-22.62h-7.424v-14.384h9.164l10.788-21.924h11.716v21.924h13.456v14.384h-13.456v19.72q0 2.9 1.856 4.524t5.22 1.624q3.132 0 5.684-1.392l.928 16.24q-2.9 1.74-7.54 2.9-4.524 1.044-8.816 1.044zm51.785 0q-9.744 0-17.4-3.828-7.54-3.828-11.832-10.556-4.176-6.844-4.176-15.66 0-8.816 4.292-15.544 4.292-6.844 11.832-10.556 7.656-3.712 17.4-3.712 9.86 0 17.4 3.828 7.656 3.712 11.832 10.44 4.176 6.728 4.176 15.544 0 8.932-4.292 15.776-4.176 6.728-11.832 10.556-7.54 3.712-17.4 3.712zm.232-17.4q4.756 0 7.772-3.48 3.132-3.596 3.132-9.164t-3.132-9.048q-3.016-3.596-7.772-3.596t-7.888 3.596q-3.016 3.48-3.016 9.048t3.016 9.164q3.132 3.48 7.888 3.48zm39.276-40.832h24.476v11.832q2.668-6.844 7.192-10.092 4.64-3.364 10.788-3.364l3.364 18.908q-11.02 0-16.24 2.436-5.104 2.32-5.104 7.424v30.16h-24.476z" font-weight="700" font-size="116" font-family="Paytone One" letter-spacing="-2.71" word-spacing="0" fill="#660080"/></svg>