<svg height="100" width="100" xmlns="http://www.w3.org/2000/svg"><path d="M5273.1 2400.1v-2c0-2.8-5-4-9.7-4s-9.7 1.3-9.7 4v2c0 1.8.7 3.6 2 4.9l5 4.9c.3.3.4.6.4 1v6.4c0 .4.2.7.6.8l2.9.9c.5.1 1-.2 1-.8v-7.2c0-.4.2-.7.4-1l5.1-5c1.3-1.3 2-3.1 2-4.9zm-9.7-.1c-4.8 0-7.4-1.3-7.5-1.8.1-.5 2.7-1.8 7.5-1.8s7.3 1.3 7.5 1.8c-.2.5-2.7 1.8-7.5 1.8z"/><path d="M5268.4 2410.3c-.6 0-1 .4-1 1s.4 1 1 1h4.3c.6 0 1-.4 1-1s-.4-1-1-1h-4.3zM5272.7 2413.7h-4.3c-.6 0-1 .4-1 1s.4 1 1 1h4.3c.6 0 1-.4 1-1s-.4-1-1-1zM5272.7 2417h-4.3c-.6 0-1 .4-1 1s.4 1 1 1h4.3c.6 0 1-.4 1-1 0-.5-.4-1-1-1z"/><g><path d="M61.4 2.5c-12.2 0-23 6.1-29.6 15.5 1.8 1.4 3.3 3.1 4.3 5.2l.7 1.5c4.9-8.6 14-14.3 24.5-14.3C77 10.3 89.6 23 89.6 38.6c0 10.5-5.7 19.6-14.3 24.4l1.4.7c2.1 1 3.9 2.6 5.3 4.3 9.3-6.5 15.5-17.3 15.5-29.5 0-19.8-16.2-36-36.1-36z"/><path d="M61.4 19.7c-2.2 0-3.9 1.8-3.9 3.9v14.9c0 2.2 1.8 3.9 3.9 3.9h12.1c2.2 0 3.9-1.8 3.9-3.9 0-2.2-1.8-3.9-3.9-3.9h-8.2v-11c0-2.1-1.7-3.9-3.9-3.9zM73.2 70.7l-13.5-7c-3.6-1.9-8-.9-10.5 2.4l-1.5 2.1c-3-1.8-5.7-3.9-8.8-7-3.2-3.2-5.3-6-7.1-9.1l2.2-1.6c3.2-2.5 4.1-6.9 2.3-10.5l-6.9-13.4c-1.1-2.1-3-3.7-5.3-4.3-2.3-.6-4.8-.2-6.8 1.2l-9.8 6.9c-3.2 2.1-5 5.8-4.7 9.5.2 3.6.6 6.4 1.1 8.4 2.7 10.3 9.1 20.9 18 29.8 8.9 8.9 19.5 15.3 29.8 18 2 .5 4.8.9 8.4 1.1h.7c3.6 0 7-1.8 8.9-4.8l6.9-10.1c1.3-2 1.7-4.4 1.1-6.7-.9-1.9-2.4-3.8-4.5-4.9zm-3.8 8.2l-6.5 9.5c-.5.8-1.5 1.4-2.5 1.3-3.1-.2-5.5-.5-7-.9-9-2.3-18.3-8-26.2-15.9-7.9-7.9-13.6-17.3-15.9-26.2-.4-1.5-.7-4-.9-7-.1-1 .4-1.9 1.3-2.6l9.3-6.6c.5-.4 1.2-.2 1.5.4l6.7 12.9c.1.2.1.5 0 .6l-4.9 3.5c-1.6 1.1-2.1 3.3-1.2 5 2.6 5 5.2 9 10.1 13.9 4.7 4.7 8.9 7.4 13.6 10 1.7.9 3.9.5 5.1-1.1l3.5-4.8c.2-.2.4-.3.7-.2l13 6.7c.5.3.7 1 .3 1.5z"/></g></svg>