<svg fill="#FFF" xmlns="http://www.w3.org/2000/svg" viewBox="0 0 64 64"><path d="M59.08 41.76C54.553 22.719 36.919 6.888 17.494 4.427c-4.106-.512-7.864 2.403-8.375 6.495-.523 4.088 2.383 7.857 6.495 8.382 13.231 1.661 25.793 12.938 28.881 25.928a7.447 7.447 0 0 0 2.28 3.837 7.51 7.51 0 0 0 6.744 1.721c4.015-.954 6.51-5.003 5.561-9.03z"/><path d="M39.636 46.391C37.001 35.33 26.255 25.683 14.983 24.259c-4.103-.522-7.861 2.394-8.382 6.496-.516 4.095 2.42 7.838 6.498 8.378 5.136.65 10.753 5.68 11.952 10.73a7.436 7.436 0 0 0 2.28 3.837 7.501 7.501 0 0 0 6.748 1.717c4.018-.957 6.513-5.006 5.557-9.026z"/><ellipse transform="rotate(-48.085 12.21 52.141)" cx="12.211" cy="52.14" rx="7.496" ry="7.496"/></svg>